<svg xmlns="http://www.w3.org/2000/svg" width="35" height="35" viewBox="0 0 35 35">
  <g id="China" transform="translate(-734 -636)">
    <g id="Group_240" data-name="Group 240" transform="translate(-1266.638 809.269)">
      <g id="Group_237" data-name="Group 237">
        <circle id="Ellipse_35" data-name="Ellipse 35" cx="17.5" cy="17.5" r="17.5" transform="translate(2000.638 -173.269)" fill="#cc3f1f"/>
      </g>
      <g id="Group_239" data-name="Group 239">
        <g id="Group_238" data-name="Group 238">
          <path id="Path_515" data-name="Path 515" d="M2010.647-166.975l1.013,3.11h3.267l-2.643,1.92,1.009,3.11-2.646-1.924L2008-158.836l1.009-3.11-2.642-1.92h3.267Z" fill="#f3e23c"/>
          <path id="Path_516" data-name="Path 516" d="M2018.668-168.322l-.1,1.08,1,.424-1.057.243-.1,1.08-.554-.931-1.056.24.711-.817-.554-.931,1,.428Z" fill="#f3e23c"/>
          <path id="Path_517" data-name="Path 517" d="M2022.143-165l-.51.958.754.781-1.068-.188-.51.954-.149-1.072-1.064-.188.974-.475-.153-1.072.754.777Z" fill="#f3e23c"/>
          <path id="Path_518" data-name="Path 518" d="M2022.469-160l-.856.664.365,1.017-.9-.609-.86.664.306-1.04-.9-.609,1.084-.035.3-1.04.365,1.021Z" fill="#f3e23c"/>
          <path id="Path_519" data-name="Path 519" d="M2019.583-156.433l-1.044.287-.051,1.08-.6-.9-1.044.287.675-.848-.593-.9,1.013.381.675-.844-.047,1.08Z" fill="#f3e23c"/>
        </g>
      </g>
    </g>
  </g>
</svg>
