<svg xmlns="http://www.w3.org/2000/svg" width="35.001" height="35" viewBox="0 0 35.001 35">
  <g id="Discord" transform="translate(-1148.871 -642.294)">
    <path id="Path_1064" data-name="Path 1064" d="M1166.37,644.221A15.573,15.573,0,0,0,1150.8,659.8v0a15.571,15.571,0,0,0,15.573,15.569h0a15.573,15.573,0,1,0,0-31.146Z" fill="#fff"/>
    <g id="Group_940" data-name="Group 940">
      <g id="Group_937" data-name="Group 937">
        <path id="Path_1065" data-name="Path 1065" d="M1166.369,642.294a17.5,17.5,0,0,0-17.5,17.5v0a17.5,17.5,0,0,0,17.5,17.5h0a17.5,17.5,0,1,0-.005-35Zm11.244,23.266a18.61,18.61,0,0,1-5.714,2.884,13.991,13.991,0,0,1-1.224-1.981,12.1,12.1,0,0,0,1.931-.925c-.16-.118-.319-.241-.472-.367a13.368,13.368,0,0,1-11.427,0q-.225.183-.465.365a12.029,12.029,0,0,0,1.926.92,14.043,14.043,0,0,1-1.224,1.986,18.722,18.722,0,0,1-5.714-2.884,19.028,19.028,0,0,1,3.339-12.869,18.339,18.339,0,0,1,4.66-1.445,13.3,13.3,0,0,1,.612,1.224,17.5,17.5,0,0,1,5.161,0,11.844,11.844,0,0,1,.6-1.224,18.533,18.533,0,0,1,4.656,1.438A19.01,19.01,0,0,1,1177.613,665.56Z" fill="#6d54ed"/>
      </g>
      <g id="Group_938" data-name="Group 938">
        <path id="Path_1066" data-name="Path 1066" d="M1162.67,658.416a2.293,2.293,0,1,0,2.03,2.276A2.161,2.161,0,0,0,1162.67,658.416Z" fill="#6d54ed"/>
      </g>
      <g id="Group_939" data-name="Group 939">
        <path id="Path_1067" data-name="Path 1067" d="M1170.169,658.416a2.293,2.293,0,1,0,2.029,2.276A2.162,2.162,0,0,0,1170.169,658.416Z" fill="#6d54ed"/>
      </g>
    </g>
  </g>
</svg>
