<svg xmlns="http://www.w3.org/2000/svg" width="35" height="35" viewBox="0 0 35 35">
  <g id="E-mail" transform="translate(-1021.911 -642.063)">
    <circle id="Ellipse_107" data-name="Ellipse 107" cx="14" cy="14" r="14" transform="translate(1025.911 646.063)" fill="#fff"/>
    <path id="Path_1059" data-name="Path 1059" d="M1039.411,642.063a17.5,17.5,0,1,0,17.5,17.5A17.5,17.5,0,0,0,1039.411,642.063Zm-7.235,10.275h14.47a2.952,2.952,0,0,1,1.032.2l-7.114,5a2.011,2.011,0,0,1-2.307,0l-7.113-5A2.952,2.952,0,0,1,1032.176,652.338Zm17.47,11.449a3.009,3.009,0,0,1-3,3h-14.47a3.009,3.009,0,0,1-3-3v-8.449a2.952,2.952,0,0,1,.4-1.472l7.533,5.3a4.007,4.007,0,0,0,4.6,0l7.533-5.3a2.952,2.952,0,0,1,.4,1.472Z" fill="#33cb98"/>
  </g>
</svg>
