<svg xmlns="http://www.w3.org/2000/svg" xmlns:xlink="http://www.w3.org/1999/xlink" width="35" height="35" viewBox="0 0 35 35">
  <defs>
    <clipPath id="clip-path">
      <circle id="Ellipse_37" data-name="Ellipse 37" cx="17.5" cy="17.5" r="17.5" transform="translate(3208.014 -173.269)" fill="none"/>
    </clipPath>
    <clipPath id="clip-path-2">
      <rect id="Rectangle_99" data-name="Rectangle 99" width="118.896" height="34" transform="translate(3166.066 -172.769)" fill="none"/>
    </clipPath>
  </defs>
  <g id="Indian" transform="translate(-3208.014 173.269)">
    <g id="Group_249" data-name="Group 249">
      <g id="Group_248" data-name="Group 248" clip-path="url(#clip-path)">
        <g id="INDIA">
          <g id="Group_247" data-name="Group 247">
            <g id="Group_246" data-name="Group 246">
              <g id="Group_245" data-name="Group 245" clip-path="url(#clip-path-2)">
                <rect id="Rectangle_95" data-name="Rectangle 95" width="118.896" height="34" transform="translate(3166.066 -172.769)" fill="#fff"/>
                <rect id="Rectangle_96" data-name="Rectangle 96" width="118.896" height="11.336" transform="translate(3166.066 -172.769)" fill="#f0953e"/>
                <rect id="Rectangle_97" data-name="Rectangle 97" width="118.896" height="11.329" transform="translate(3166.066 -150.098)" fill="#3b8916"/>
                <g id="Group_244" data-name="Group 244">
                  <g id="Group_243" data-name="Group 243" clip-path="url(#clip-path-2)">
                    <path id="Path_523" data-name="Path 523" d="M3225.514-160.864a5.1,5.1,0,0,0-5.1,5.1,5.1,5.1,0,0,0,5.1,5.1,5.1,5.1,0,0,0,5.1-5.1,5.1,5.1,0,0,0-5.1-5.1m0,.495-.128,2.564.139,1.459.129-1.459-.129-2.564a3.89,3.89,0,0,1,.393.02c0,.007-.007.007-.007.014a.219.219,0,0,0,.211.224.212.212,0,0,0,.206-.19,3.44,3.44,0,0,1,.377.088l-.787,2.442-.251,1.445.509-1.384.542-2.5c.123.041.245.075.367.122a.241.241,0,0,0-.017.075.212.212,0,0,0,.214.21.216.216,0,0,0,.193-.129c.115.055.227.116.343.184l-1.4,2.143-.617,1.343.852-1.2,1.17-2.28c.1.061.213.129.322.2a.211.211,0,0,0-.048.136.212.212,0,0,0,.214.21.185.185,0,0,0,.166-.088q.153.132.285.264l-1.9,1.717-.94,1.133,1.13-.937,1.719-1.906c.089.1.177.183.258.285a.205.205,0,0,0-.074.163.21.21,0,0,0,.206.21.2.2,0,0,0,.126-.041,3.5,3.5,0,0,1,.207.326l-2.279,1.167-1.2.855,1.333-.611,2.154-1.4c.071.122.129.251.186.359a.235.235,0,0,0-.129.2.211.211,0,0,0,.207.21.161.161,0,0,0,.082-.02c.04.122.078.237.108.359l-2.506.529-1.374.509,1.445-.244,2.442-.78c.03.109.061.244.085.366a.205.205,0,0,0-.183.211.214.214,0,0,0,.213.21h.021a3.729,3.729,0,0,1,.013.38l-2.557-.122-1.465.129,1.465.142,2.557-.136a3.729,3.729,0,0,1-.013.387h-.021a.219.219,0,0,0-.213.21.216.216,0,0,0,.179.211c-.023.128-.051.251-.081.373l-.872-.278-1.57-.509-1.445-.244h0l1.374.508,2.506.536a2.383,2.383,0,0,1-.115.36c-.007,0-.02-.007-.027-.007h-.048a.208.208,0,0,0-.213.21.159.159,0,0,0,.02.082h0a.149.149,0,0,0,.058.081h0c.006,0,.01.007.017.007h0a.031.031,0,0,0,.02.013h0s.01.007.013.014c-.054.115-.115.231-.179.339l-2.151-1.39h0l-1.333-.611h.007l.7.488.5.353h0l2.279,1.167c-.068.115-.136.231-.21.332a.247.247,0,0,0-.123-.033.2.2,0,0,0-.21.2.191.191,0,0,0,.078.163c-.085.1-.169.19-.258.278l-1.719-1.9-1.126-.937.936,1.133,1.9,1.717a2.843,2.843,0,0,1-.275.251.2.2,0,0,0-.132-.048.216.216,0,0,0-.21.21.252.252,0,0,0,.017.1c-.112.068-.227.143-.339.217l-1.17-2.279-.852-1.207h0l.614,1.336,1.394,2.157c-.112.061-.224.122-.339.177a.2.2,0,0,0-.19-.129.216.216,0,0,0-.214.21.324.324,0,0,0,.014.081,3.362,3.362,0,0,1-.367.109l-.542-2.51-.509-1.364v-.006l.251,1.445.787,2.442a2.511,2.511,0,0,1-.377.081.216.216,0,0,0-.206-.176.206.206,0,0,0-.211.2v.027a3.564,3.564,0,0,1-.386.021l.129-2.558-.136-1.465-.132,1.465.128,2.558a3.654,3.654,0,0,1-.393-.021v-.027a.211.211,0,0,0-.214-.2.218.218,0,0,0-.207.176,3.126,3.126,0,0,1-.366-.081l.787-2.442.244-1.439-.509,1.364-.535,2.51c-.123-.027-.245-.068-.37-.109a.235.235,0,0,0,.017-.081.215.215,0,0,0-.207-.21.225.225,0,0,0-.2.129c-.112-.055-.228-.116-.339-.177l1.394-2.157.61-1.336-.848,1.2-1.167,2.286c-.111-.074-.223-.142-.329-.217a.171.171,0,0,0,.041-.115.212.212,0,0,0-.207-.217.2.2,0,0,0-.163.081c-.1-.088-.2-.163-.285-.257l1.907-1.717.936-1.133h0l-1.13.937-1.719,1.9c-.095-.088-.18-.19-.265-.278a.226.226,0,0,0,.082-.17.206.206,0,0,0-.211-.2.24.24,0,0,0-.125.034,3.065,3.065,0,0,1-.207-.326l2.286-1.174,1.19-.834-1.333.611-2.15,1.39c-.064-.108-.115-.217-.173-.339a.2.2,0,0,0,.136-.19.212.212,0,0,0-.214-.217.2.2,0,0,0-.088.02c-.041-.115-.082-.244-.119-.373l2.51-.536,1.381-.508-1.452.244-2.442.787c-.034-.122-.058-.245-.085-.38a.2.2,0,0,0,.183-.2.211.211,0,0,0-.21-.21h-.024c-.007-.122-.017-.251-.017-.387l2.561.136,1.462-.142-1.462-.129-2.561.122c0-.122.01-.258.017-.38h.037a.207.207,0,0,0,.211-.21.212.212,0,0,0-.2-.211c.027-.122.051-.257.085-.366l2.442.78,1.452.244-1.381-.509-2.51-.535c.037-.129.078-.251.119-.367a.276.276,0,0,0,.078.014.21.21,0,0,0,.21-.211.2.2,0,0,0-.125-.189c.054-.123.112-.238.176-.353l2.15,1.4,1.34.611-1.2-.855-2.286-1.167c.064-.109.135-.217.21-.332a.171.171,0,0,0,.126.047.213.213,0,0,0,.21-.21.265.265,0,0,0-.078-.17c.078-.1.163-.183.254-.278l1.72,1.906,1.133.937-.936-1.133-1.907-1.717c.095-.088.187-.176.285-.257a.2.2,0,0,0,.163.081.214.214,0,0,0,.214-.217.253.253,0,0,0-.044-.129c.108-.061.214-.136.325-.2l1.167,2.28.848,1.194-.61-1.337-1.394-2.143c.111-.068.223-.129.335-.184a.213.213,0,0,0,.2.136.207.207,0,0,0,.21-.2.3.3,0,0,0-.013-.089c.119-.047.247-.081.37-.122l.542,2.5.509,1.384-.248-1.445-.786-2.442a3.212,3.212,0,0,1,.373-.088.21.21,0,0,0,.206.183.214.214,0,0,0,.214-.217v-.02a3.484,3.484,0,0,1,.383-.014" fill="#16007e"/>
                    <path id="Path_524" data-name="Path 524" d="M3225.521-156.529a.763.763,0,0,1,.759.76.764.764,0,0,1-.759.766.766.766,0,0,1-.767-.766.764.764,0,0,1,.767-.76" fill="#fff"/>
                    <path id="Path_525" data-name="Path 525" d="M3225.521-156.353a.584.584,0,0,1,.586.584.59.59,0,0,1-.586.6.6.6,0,0,1-.6-.6.589.589,0,0,1,.6-.584" fill="#16007e"/>
                  </g>
                </g>
              </g>
            </g>
          </g>
        </g>
      </g>
    </g>
    <g id="Group_250" data-name="Group 250">
      <g id="Ellipse_38" data-name="Ellipse 38" transform="translate(3208.014 -173.269)" fill="none" stroke="#acacac" stroke-width="0.5">
        <circle cx="17.5" cy="17.5" r="17.5" stroke="none"/>
        <circle cx="17.5" cy="17.5" r="17.25" fill="none"/>
      </g>
    </g>
  </g>
</svg>
