<svg xmlns="http://www.w3.org/2000/svg" xmlns:xlink="http://www.w3.org/1999/xlink" width="35" height="35" viewBox="0 0 35 35">
  <defs>
    <clipPath id="clip-path">
      <circle id="Ellipse_41" data-name="Ellipse 41" cx="17.5" cy="17.5" r="17.5" transform="translate(1612.462 455.812)" fill="none"/>
    </clipPath>
    <clipPath id="clip-path-2">
      <rect id="Rectangle_104" data-name="Rectangle 104" width="35" height="35" transform="translate(1612.462 455.812)" fill="none"/>
    </clipPath>
  </defs>
  <g id="Korea" transform="translate(-1612.462 -455.812)">
    <g id="Group_261" data-name="Group 261">
      <g id="Group_260" data-name="Group 260" clip-path="url(#clip-path)">
        <g id="MONACO">
          <g id="Group_259" data-name="Group 259">
            <g id="Group_258" data-name="Group 258">
              <g id="Group_257" data-name="Group 257" clip-path="url(#clip-path-2)">
                <rect id="Rectangle_103" data-name="Rectangle 103" width="35" height="35" transform="translate(1612.462 455.812)" fill="#fff"/>
              </g>
            </g>
          </g>
        </g>
      </g>
    </g>
    <g id="Group_262" data-name="Group 262">
      <g id="Ellipse_42" data-name="Ellipse 42" transform="translate(1612.462 455.812)" fill="none" stroke="#acacac" stroke-width="0.5">
        <circle cx="17.5" cy="17.5" r="17.5" stroke="none"/>
        <circle cx="17.5" cy="17.5" r="17.25" fill="none"/>
      </g>
    </g>
    <g id="KOREA_SOUTH" data-name="KOREA SOUTH">
      <g id="Group_265" data-name="Group 265">
        <g id="Group_264" data-name="Group 264">
          <rect id="Rectangle_105" data-name="Rectangle 105" width="0.996" height="2.739" transform="matrix(0.833, -0.554, 0.554, 0.833, 1635.764, 465.85)"/>
          <rect id="Rectangle_106" data-name="Rectangle 106" width="0.995" height="2.739" transform="translate(1637.558 468.546) rotate(-33.739)"/>
          <rect id="Rectangle_107" data-name="Rectangle 107" width="0.998" height="5.979" transform="translate(1637.007 465.021) rotate(-33.677)"/>
          <rect id="Rectangle_108" data-name="Rectangle 108" width="0.996" height="2.742" transform="matrix(0.833, -0.554, 0.554, 0.833, 1638.25, 464.19)"/>
          <path id="Path_526" data-name="Path 526" d="M1640.873,466.338l1.518,2.28-.828.553-1.518-2.28Z"/>
          <rect id="Rectangle_109" data-name="Rectangle 109" width="0.996" height="5.974" transform="translate(1620.016 476.35) rotate(-33.702)"/>
          <rect id="Rectangle_110" data-name="Rectangle 110" width="0.995" height="2.735" transform="translate(1618.774 477.179) rotate(-33.69)"/>
          <rect id="Rectangle_111" data-name="Rectangle 111" width="0.996" height="2.739" transform="translate(1620.569 479.874) rotate(-33.656)"/>
          <rect id="Rectangle_112" data-name="Rectangle 112" width="0.996" height="5.974" transform="translate(1617.53 478.009) rotate(-33.684)"/>
          <rect id="Rectangle_113" data-name="Rectangle 113" width="5.976" height="0.995" transform="translate(1620.017 470.272) rotate(-56.323)"/>
          <rect id="Rectangle_114" data-name="Rectangle 114" width="5.978" height="0.996" transform="matrix(0.555, -0.832, 0.832, 0.555, 1618.773, 469.444)"/>
          <rect id="Rectangle_115" data-name="Rectangle 115" width="5.982" height="0.996" transform="translate(1617.529 468.618) rotate(-56.347)"/>
          <rect id="Rectangle_116" data-name="Rectangle 116" width="2.735" height="0.996" transform="translate(1635.764 480.767) rotate(-56.27)"/>
          <rect id="Rectangle_117" data-name="Rectangle 117" width="2.743" height="0.995" transform="matrix(0.554, -0.833, 0.833, 0.554, 1637.559, 478.081)"/>
          <rect id="Rectangle_118" data-name="Rectangle 118" width="2.739" height="0.998" transform="translate(1637.006 481.601) rotate(-56.323)"/>
          <path id="Path_527" data-name="Path 527" d="M1638.8,478.9l1.521-2.275.83.553-1.52,2.275Z"/>
          <rect id="Rectangle_119" data-name="Rectangle 119" width="2.738" height="0.996" transform="matrix(0.556, -0.831, 0.831, 0.556, 1638.249, 482.426)"/>
          <rect id="Rectangle_120" data-name="Rectangle 120" width="2.737" height="0.994" transform="translate(1640.046 479.736) rotate(-56.344)"/>
          <g id="Group_263" data-name="Group 263">
            <path id="Path_528" data-name="Path 528" d="M1624.99,470a.61.61,0,0,0-.064.1.772.772,0,0,1,.064-.1" fill="#b50037"/>
            <path id="Path_529" data-name="Path 529" d="M1633.278,468.336a5.981,5.981,0,0,0-8.288,1.66,2.988,2.988,0,1,0,4.971,3.316,2.987,2.987,0,1,1,4.971,3.315,5.978,5.978,0,0,0-1.654-8.291" fill="#b50037"/>
            <path id="Path_530" data-name="Path 530" d="M1624.99,470a2.988,2.988,0,1,0,4.971,3.316,2.987,2.987,0,1,1,4.971,3.315A5.975,5.975,0,1,1,1624.99,470" fill="#1e3476"/>
          </g>
        </g>
      </g>
    </g>
  </g>
</svg>
