<svg xmlns="http://www.w3.org/2000/svg" width="35" height="35" viewBox="0 0 35 35">
  <g id="LinkedIn" transform="translate(-700 -633)">
    <g id="Group_957" data-name="Group 957" transform="translate(-658.304 -9.294)">
      <circle id="Ellipse_70" data-name="Ellipse 70" cx="17.5" cy="17.5" r="17.5" transform="translate(1358.304 642.294)" fill="#455fac"/>
      <g id="Group_956" data-name="Group 956">
        <g id="Group_955" data-name="Group 955">
          <path id="Path_1080" data-name="Path 1080" d="M1377.158,657.406c.287-.323.524-.65.819-.929a4.5,4.5,0,0,1,3.235-1.276,7.491,7.491,0,0,1,2.033.248,3.974,3.974,0,0,1,2.823,2.968,12.42,12.42,0,0,1,.376,3.4c0,2.417-.007,4.834,0,7.252,0,.226-.063.285-.286.284q-1.867-.016-3.736,0c-.219,0-.266-.066-.266-.273q.01-3.45,0-6.9a6.2,6.2,0,0,0-.2-1.713,1.926,1.926,0,0,0-2.118-1.5,2.315,2.315,0,0,0-2.433,2.311,8.455,8.455,0,0,0-.066,1.079c0,2.237,0,4.474.006,6.711,0,.223-.056.289-.283.287q-1.883-.016-3.764,0c-.2,0-.259-.053-.259-.256q.009-6.644,0-13.287c0-.22.072-.27.279-.269q1.787.014,3.574,0c.219,0,.276.069.271.277C1377.15,656.347,1377.158,656.877,1377.158,657.406Z" fill="#fcfcfc"/>
          <path id="Path_1081" data-name="Path 1081" d="M1370.334,662.468c0,2.191,0,4.382.005,6.574,0,.243-.059.317-.311.314-1.245-.014-2.49-.011-3.735,0-.2,0-.26-.048-.26-.255q.009-6.654,0-13.309c0-.183.045-.249.24-.248,1.263.008,2.526.011,3.789,0,.242,0,.275.092.275.3Q1370.329,659.154,1370.334,662.468Z" fill="#fcfcfc"/>
          <path id="Path_1082" data-name="Path 1082" d="M1370.677,651.146a2.487,2.487,0,1,1-2.482-2.474A2.495,2.495,0,0,1,1370.677,651.146Z" fill="#fcfcfc"/>
        </g>
      </g>
    </g>
  </g>
</svg>
