<svg xmlns="http://www.w3.org/2000/svg" width="35" height="35" viewBox="0 0 35 35">
  <g id="Medium" transform="translate(-1400.46 -642.063)">
    <circle id="Ellipse_71" data-name="Ellipse 71" cx="17.5" cy="17.5" r="17.5" transform="translate(1400.46 642.063)"/>
    <g id="Group_960" data-name="Group 960">
      <g id="Group_959" data-name="Group 959">
        <g id="Group_958" data-name="Group 958">
          <path id="Path_1083" data-name="Path 1083" d="M1419.467,659.621a6.664,6.664,0,1,1-6.664-6.709,6.687,6.687,0,0,1,6.664,6.709" fill="#fff"/>
          <path id="Path_1084" data-name="Path 1084" d="M1426.777,659.621c0,3.488-1.492,6.316-3.332,6.316s-3.332-2.828-3.332-6.316,1.492-6.315,3.332-6.315,3.332,2.827,3.332,6.315" fill="#fff"/>
          <path id="Path_1085" data-name="Path 1085" d="M1429.767,659.621c0,3.125-.524,5.659-1.172,5.659s-1.171-2.534-1.171-5.659.524-5.658,1.171-5.658,1.172,2.533,1.172,5.658" fill="#fff"/>
        </g>
      </g>
    </g>
  </g>
</svg>
