<svg xmlns="http://www.w3.org/2000/svg" xmlns:xlink="http://www.w3.org/1999/xlink" width="35" height="35" viewBox="0 0 35 35">
  <defs>
    <clipPath id="clip-path">
      <circle id="Ellipse_58" data-name="Ellipse 58" cx="17.5" cy="17.5" r="17.5" transform="translate(1696.815 -820.421)" fill="none"/>
    </clipPath>
  </defs>
  <g id="Persian" transform="translate(-1696.815 820.421)">
    <g id="Group_865" data-name="Group 865">
      <g id="Group_864" data-name="Group 864" clip-path="url(#clip-path)">
        <g id="Group_862" data-name="Group 862">
          <rect id="Rectangle_130" data-name="Rectangle 130" width="122.418" height="35" transform="translate(1653.106 -820.421)" fill="#da0000"/>
          <rect id="Rectangle_131" data-name="Rectangle 131" width="122.418" height="23.333" transform="translate(1653.106 -820.421)" fill="#fff"/>
          <rect id="Rectangle_132" data-name="Rectangle 132" width="122.418" height="11.667" transform="translate(1653.106 -820.421)" fill="#239f40"/>
          <g id="Group_859" data-name="Group 859">
            <g id="tb4">
              <g id="tb1">
                <path id="tbp1" d="M1684.506-810.524h3.539m-3.4,1.225v-.68h1.088v.544h1.089v-.544h-.68m-1.089.544h.272m2.722,0h-.68v-.544h1.089m0-.681v1.225h1.089v-1.225m-.545,0v1.225" fill="none" stroke="#fff" stroke-width="0.272"/>
                <path id="tbp2" d="M1684.506-808.754h2.45m.273,0h2.45" fill="none" stroke="#fff" stroke-width="0.544"/>
                <g id="Group_826" data-name="Group 826">
                  <path id="tbp2-2" data-name="tbp2" d="M1684.506-797.088h2.45m.273,0h2.45" fill="none" stroke="#fff" stroke-width="0.544"/>
                </g>
                <g id="Group_827" data-name="Group 827">
                  <path id="tbp1-2" data-name="tbp1" d="M1684.506-796.407h3.539m-3.4,1.225v-.681h1.088v.545h1.089v-.545h-.68m-1.089.545h.272m2.722,0h-.68v-.545h1.089m0-.68v1.225h1.089v-1.225m-.545,0v1.225" fill="none" stroke="#fff" stroke-width="0.272"/>
                </g>
              </g>
              <g id="tb3">
                <g id="Group_830" data-name="Group 830">
                  <g id="tb1-2" data-name="tb1">
                    <path id="tbp1-3" data-name="tbp1" d="M1689.951-810.524h3.539m-3.4,1.225v-.68h1.089v.544h1.089v-.544h-.681m-1.089.544h.273m2.722,0h-.681v-.544h1.089m0-.681v1.225h1.089v-1.225m-.544,0v1.225" fill="none" stroke="#fff" stroke-width="0.272"/>
                    <path id="tbp2-3" data-name="tbp2" d="M1689.951-808.754h2.45m.272,0h2.45" fill="none" stroke="#fff" stroke-width="0.544"/>
                    <g id="Group_828" data-name="Group 828">
                      <path id="tbp2-4" data-name="tbp2" d="M1689.951-797.088h2.45m.272,0h2.45" fill="none" stroke="#fff" stroke-width="0.544"/>
                    </g>
                    <g id="Group_829" data-name="Group 829">
                      <path id="tbp1-4" data-name="tbp1" d="M1689.951-796.407h3.539m-3.4,1.225v-.681h1.089v.545h1.089v-.545h-.681m-1.089.545h.273m2.722,0h-.681v-.545h1.089m0-.68v1.225h1.089v-1.225m-.544,0v1.225" fill="none" stroke="#fff" stroke-width="0.272"/>
                    </g>
                  </g>
                </g>
                <g id="Group_833" data-name="Group 833">
                  <g id="tb1-3" data-name="tb1">
                    <path id="tbp1-5" data-name="tbp1" d="M1695.4-810.524h3.539m-3.4,1.225v-.68h1.089v.544h1.089v-.544h-.68m-1.089.544h.272m2.722,0h-.68v-.544h1.089m0-.681v1.225h1.088v-1.225m-.544,0v1.225" fill="none" stroke="#fff" stroke-width="0.272"/>
                    <path id="tbp2-5" data-name="tbp2" d="M1695.4-808.754h2.45m.273,0h2.45" fill="none" stroke="#fff" stroke-width="0.544"/>
                    <g id="Group_831" data-name="Group 831">
                      <path id="tbp2-6" data-name="tbp2" d="M1695.4-797.088h2.45m.273,0h2.45" fill="none" stroke="#fff" stroke-width="0.544"/>
                    </g>
                    <g id="Group_832" data-name="Group 832">
                      <path id="tbp1-6" data-name="tbp1" d="M1695.4-796.407h3.539m-3.4,1.225v-.681h1.089v.545h1.089v-.545h-.68m-1.089.545h.272m2.722,0h-.68v-.545h1.089m0-.68v1.225h1.088v-1.225m-.544,0v1.225" fill="none" stroke="#fff" stroke-width="0.272"/>
                    </g>
                  </g>
                </g>
                <g id="Group_836" data-name="Group 836">
                  <g id="tb1-4" data-name="tb1">
                    <path id="tbp1-7" data-name="tbp1" d="M1700.84-810.524h3.539m-3.4,1.225v-.68h1.089v.544h1.089v-.544h-.681m-1.089.544h.272m2.723,0h-.681v-.544h1.089m0-.681v1.225h1.089v-1.225m-.545,0v1.225" fill="none" stroke="#fff" stroke-width="0.272"/>
                    <path id="tbp2-7" data-name="tbp2" d="M1700.84-808.754h2.45m.272,0h2.45" fill="none" stroke="#fff" stroke-width="0.544"/>
                    <g id="Group_834" data-name="Group 834">
                      <path id="tbp2-8" data-name="tbp2" d="M1700.84-797.088h2.45m.272,0h2.45" fill="none" stroke="#fff" stroke-width="0.544"/>
                    </g>
                    <g id="Group_835" data-name="Group 835">
                      <path id="tbp1-8" data-name="tbp1" d="M1700.84-796.407h3.539m-3.4,1.225v-.681h1.089v.545h1.089v-.545h-.681m-1.089.545h.272m2.723,0h-.681v-.545h1.089m0-.68v1.225h1.089v-1.225m-.545,0v1.225" fill="none" stroke="#fff" stroke-width="0.272"/>
                    </g>
                  </g>
                </g>
              </g>
            </g>
            <g id="Group_846" data-name="Group 846">
              <g id="tb3-2" data-name="tb3">
                <g id="Group_839" data-name="Group 839">
                  <g id="tb1-5" data-name="tb1">
                    <path id="tbp1-9" data-name="tbp1" d="M1706.284-810.524h3.539m-3.4,1.225v-.68h1.089v.544h1.089v-.544h-.68m-1.089.544h.272m2.722,0h-.68v-.544h1.088m0-.681v1.225h1.089v-1.225m-.544,0v1.225" fill="none" stroke="#fff" stroke-width="0.272"/>
                    <path id="tbp2-9" data-name="tbp2" d="M1706.284-808.754h2.45m.272,0h2.45" fill="none" stroke="#fff" stroke-width="0.544"/>
                    <g id="Group_837" data-name="Group 837">
                      <path id="tbp2-10" data-name="tbp2" d="M1706.284-797.088h2.45m.272,0h2.45" fill="none" stroke="#fff" stroke-width="0.544"/>
                    </g>
                    <g id="Group_838" data-name="Group 838">
                      <path id="tbp1-10" data-name="tbp1" d="M1706.284-796.407h3.539m-3.4,1.225v-.681h1.089v.545h1.089v-.545h-.68m-1.089.545h.272m2.722,0h-.68v-.545h1.088m0-.68v1.225h1.089v-1.225m-.544,0v1.225" fill="none" stroke="#fff" stroke-width="0.272"/>
                    </g>
                  </g>
                </g>
                <g id="Group_842" data-name="Group 842">
                  <g id="tb1-6" data-name="tb1">
                    <path id="tbp1-11" data-name="tbp1" d="M1711.729-810.524h3.539m-3.4,1.225v-.68h1.089v.544h1.089v-.544h-.681m-1.089.544h.272m2.723,0h-.681v-.544h1.089m0-.681v1.225h1.089v-1.225m-.545,0v1.225" fill="none" stroke="#fff" stroke-width="0.272"/>
                    <path id="tbp2-11" data-name="tbp2" d="M1711.729-808.754h2.45m.272,0h2.45" fill="none" stroke="#fff" stroke-width="0.544"/>
                    <g id="Group_840" data-name="Group 840">
                      <path id="tbp2-12" data-name="tbp2" d="M1711.729-797.088h2.45m.272,0h2.45" fill="none" stroke="#fff" stroke-width="0.544"/>
                    </g>
                    <g id="Group_841" data-name="Group 841">
                      <path id="tbp1-12" data-name="tbp1" d="M1711.729-796.407h3.539m-3.4,1.225v-.681h1.089v.545h1.089v-.545h-.681m-1.089.545h.272m2.723,0h-.681v-.545h1.089m0-.68v1.225h1.089v-1.225m-.545,0v1.225" fill="none" stroke="#fff" stroke-width="0.272"/>
                    </g>
                  </g>
                </g>
                <g id="Group_845" data-name="Group 845">
                  <g id="tb1-7" data-name="tb1">
                    <path id="tbp1-13" data-name="tbp1" d="M1717.173-810.524h3.539m-3.4,1.225v-.68h1.089v.544h1.089v-.544h-.681m-1.088.544h.272m2.722,0h-.681v-.544h1.089m0-.681v1.225h1.089v-1.225m-.544,0v1.225" fill="none" stroke="#fff" stroke-width="0.272"/>
                    <path id="tbp2-13" data-name="tbp2" d="M1717.173-808.754h2.45m.272,0h2.45" fill="none" stroke="#fff" stroke-width="0.544"/>
                    <g id="Group_843" data-name="Group 843">
                      <path id="tbp2-14" data-name="tbp2" d="M1717.173-797.088h2.45m.272,0h2.45" fill="none" stroke="#fff" stroke-width="0.544"/>
                    </g>
                    <g id="Group_844" data-name="Group 844">
                      <path id="tbp1-14" data-name="tbp1" d="M1717.173-796.407h3.539m-3.4,1.225v-.681h1.089v.545h1.089v-.545h-.681m-1.088.545h.272m2.722,0h-.681v-.545h1.089m0-.68v1.225h1.089v-1.225m-.544,0v1.225" fill="none" stroke="#fff" stroke-width="0.272"/>
                    </g>
                  </g>
                </g>
              </g>
            </g>
            <g id="Group_858" data-name="Group 858">
              <g id="tb4-2" data-name="tb4">
                <g id="tb1-8" data-name="tb1">
                  <path id="tbp1-15" data-name="tbp1" d="M1722.618-810.524h3.538m-3.4,1.225v-.68h1.089v.544h1.088v-.544h-.68m-1.089.544h.272m2.722,0h-.68v-.544h1.089m0-.681v1.225h1.089v-1.225m-.545,0v1.225" fill="none" stroke="#fff" stroke-width="0.272"/>
                  <path id="tbp2-15" data-name="tbp2" d="M1722.618-808.754h2.45m.272,0h2.45" fill="none" stroke="#fff" stroke-width="0.544"/>
                  <g id="Group_847" data-name="Group 847">
                    <path id="tbp2-16" data-name="tbp2" d="M1722.618-797.088h2.45m.272,0h2.45" fill="none" stroke="#fff" stroke-width="0.544"/>
                  </g>
                  <g id="Group_848" data-name="Group 848">
                    <path id="tbp1-16" data-name="tbp1" d="M1722.618-796.407h3.538m-3.4,1.225v-.681h1.089v.545h1.088v-.545h-.68m-1.089.545h.272m2.722,0h-.68v-.545h1.089m0-.68v1.225h1.089v-1.225m-.545,0v1.225" fill="none" stroke="#fff" stroke-width="0.272"/>
                  </g>
                </g>
                <g id="tb3-3" data-name="tb3">
                  <g id="Group_851" data-name="Group 851">
                    <g id="tb1-9" data-name="tb1">
                      <path id="tbp1-17" data-name="tbp1" d="M1728.062-810.524h3.539m-3.4,1.225v-.68h1.089v.544h1.089v-.544h-.681m-1.089.544h.273m2.722,0h-.681v-.544h1.089m0-.681v1.225h1.089v-1.225m-.544,0v1.225" fill="none" stroke="#fff" stroke-width="0.272"/>
                      <path id="tbp2-17" data-name="tbp2" d="M1728.062-808.754h2.45m.272,0h2.45" fill="none" stroke="#fff" stroke-width="0.544"/>
                      <g id="Group_849" data-name="Group 849">
                        <path id="tbp2-18" data-name="tbp2" d="M1728.062-797.088h2.45m.272,0h2.45" fill="none" stroke="#fff" stroke-width="0.544"/>
                      </g>
                      <g id="Group_850" data-name="Group 850">
                        <path id="tbp1-18" data-name="tbp1" d="M1728.062-796.407h3.539m-3.4,1.225v-.681h1.089v.545h1.089v-.545h-.681m-1.089.545h.273m2.722,0h-.681v-.545h1.089m0-.68v1.225h1.089v-1.225m-.544,0v1.225" fill="none" stroke="#fff" stroke-width="0.272"/>
                      </g>
                    </g>
                  </g>
                  <g id="Group_854" data-name="Group 854">
                    <g id="tb1-10" data-name="tb1">
                      <path id="tbp1-19" data-name="tbp1" d="M1733.506-810.524h3.539m-3.4,1.225v-.68h1.088v.544h1.089v-.544h-.68m-1.089.544h.272m2.722,0h-.68v-.544h1.089m0-.681v1.225h1.089v-1.225m-.545,0v1.225" fill="none" stroke="#fff" stroke-width="0.272"/>
                      <path id="tbp2-19" data-name="tbp2" d="M1733.506-808.754h2.45m.273,0h2.45" fill="none" stroke="#fff" stroke-width="0.544"/>
                      <g id="Group_852" data-name="Group 852">
                        <path id="tbp2-20" data-name="tbp2" d="M1733.506-797.088h2.45m.273,0h2.45" fill="none" stroke="#fff" stroke-width="0.544"/>
                      </g>
                      <g id="Group_853" data-name="Group 853">
                        <path id="tbp1-20" data-name="tbp1" d="M1733.506-796.407h3.539m-3.4,1.225v-.681h1.088v.545h1.089v-.545h-.68m-1.089.545h.272m2.722,0h-.68v-.545h1.089m0-.68v1.225h1.089v-1.225m-.545,0v1.225" fill="none" stroke="#fff" stroke-width="0.272"/>
                      </g>
                    </g>
                  </g>
                  <g id="Group_857" data-name="Group 857">
                    <g id="tb1-11" data-name="tb1">
                      <path id="tbp1-21" data-name="tbp1" d="M1738.951-810.524h3.539m-3.4,1.225v-.68h1.089v.544h1.089v-.544h-.681m-1.089.544h.273m2.722,0h-.681v-.544h1.089m0-.681v1.225h1.089v-1.225m-.544,0v1.225" fill="none" stroke="#fff" stroke-width="0.272"/>
                      <path id="tbp2-21" data-name="tbp2" d="M1738.951-808.754h2.45m.272,0h2.45" fill="none" stroke="#fff" stroke-width="0.544"/>
                      <g id="Group_855" data-name="Group 855">
                        <path id="tbp2-22" data-name="tbp2" d="M1738.951-797.088h2.45m.272,0h2.45" fill="none" stroke="#fff" stroke-width="0.544"/>
                      </g>
                      <g id="Group_856" data-name="Group 856">
                        <path id="tbp1-22" data-name="tbp1" d="M1738.951-796.407h3.539m-3.4,1.225v-.681h1.089v.545h1.089v-.545h-.681m-1.089.545h.273m2.722,0h-.681v-.545h1.089m0-.68v1.225h1.089v-1.225m-.544,0v1.225" fill="none" stroke="#fff" stroke-width="0.272"/>
                      </g>
                    </g>
                  </g>
                </g>
              </g>
            </g>
          </g>
          <g id="Group_861" data-name="Group 861">
            <g id="emblem_half" data-name="emblem half">
              <path id="Path_998" data-name="Path 998" d="M1711.917-799.262a3.99,3.99,0,0,0,5.028-2.562,3.99,3.99,0,0,0-1.193-4.258,4.375,4.375,0,0,1-1.175,6.075,4.372,4.372,0,0,1-2.66.745" fill="#da0000"/>
              <path id="Path_999" data-name="Path 999" d="M1717.02-800.027a3.343,3.343,0,0,0,1.221-4.567,3.345,3.345,0,0,0-2.081-1.569,4.375,4.375,0,0,1,.867,6.126l-.007.01" fill="#da0000"/>
              <path id="Path_1000" data-name="Path 1000" d="M1714.315-798.546l-.219-4.375.219-3.444a1.362,1.362,0,0,0,.516.433v2.572l-.176,4.345Z" fill="#da0000"/>
              <path id="Path_1001" data-name="Path 1001" d="M1714.227-806.64l.088.082a.629.629,0,0,0,.879.153.63.63,0,0,0,.224-.75.6.6,0,0,1-.7.476.6.6,0,0,1-.406-.287" fill="#da0000"/>
            </g>
            <g id="Group_860" data-name="Group 860">
              <g id="emblem_half-2" data-name="emblem half">
                <path id="Path_1002" data-name="Path 1002" d="M1716.713-799.262a3.99,3.99,0,0,1-5.028-2.562,3.991,3.991,0,0,1,1.192-4.258,4.377,4.377,0,0,0,1.176,6.075,4.372,4.372,0,0,0,2.66.745" fill="#da0000"/>
                <path id="Path_1003" data-name="Path 1003" d="M1711.61-800.027a3.343,3.343,0,0,1-1.222-4.567,3.344,3.344,0,0,1,2.082-1.569,4.375,4.375,0,0,0-.868,6.126l.008.01" fill="#da0000"/>
                <path id="Path_1004" data-name="Path 1004" d="M1714.315-798.546l.219-4.375-.219-3.444a1.364,1.364,0,0,1-.517.433v2.572l.176,4.345Z" fill="#da0000"/>
                <path id="Path_1005" data-name="Path 1005" d="M1714.4-806.64l-.087.082a.631.631,0,0,1-.88.153.631.631,0,0,1-.223-.75.6.6,0,0,0,.7.476.6.6,0,0,0,.406-.287" fill="#da0000"/>
              </g>
            </g>
          </g>
        </g>
      </g>
    </g>
    <g id="Group_866" data-name="Group 866">
      <g id="Ellipse_59" data-name="Ellipse 59" transform="translate(1696.815 -820.421)" fill="none" stroke="#acacac" stroke-width="0.5">
        <circle cx="17.5" cy="17.5" r="17.5" stroke="none"/>
        <circle cx="17.5" cy="17.5" r="17.25" fill="none"/>
      </g>
    </g>
  </g>
</svg>
