<svg xmlns="http://www.w3.org/2000/svg" width="35" height="35" viewBox="0 0 35 35">
  <g id="Philippines" transform="translate(-2296.259 -455.812)">
    <g id="Group_873" data-name="Group 873">
      <g id="Group_872" data-name="Group 872">
        <g id="Group_867" data-name="Group 867">
          <path id="Path_1006" data-name="Path 1006" d="M2331.259,473.312h-35a17.5,17.5,0,0,1,35,0Z" fill="#3127a2"/>
          <path id="Path_1007" data-name="Path 1007" d="M2331.259,473.312a17.5,17.5,0,0,1-35,0Z" fill="#bd2f2b"/>
        </g>
        <g id="Group_871" data-name="Group 871">
          <path id="Path_1008" data-name="Path 1008" d="M2319.927,473.312l-19.534,11.28a17.463,17.463,0,0,1,0-22.565Z" fill="#fff"/>
          <g id="Group_870" data-name="Group 870">
            <path id="Path_1009" data-name="Path 1009" d="M2311.462,473.626l.3-.314-.3-.318-2.379.161c0-.055-.008-.106-.016-.161l2.14-.271-.267-.279-1.9.412a2.288,2.288,0,0,0-.361-.872l1.633-1.048-.011-.389-1.7,1.32c-.032-.04-.067-.083-.1-.122l1.794-1.571-.012-.435-.432-.012-1.57,1.794c-.04-.035-.083-.067-.122-.1l1.319-1.7-.388-.012-1.049,1.63a2.335,2.335,0,0,0-.871-.358l.412-1.9-.279-.267-.271,2.14c-.055-.008-.106-.012-.161-.016l.157-2.379-.314-.3-.314.3.157,2.379c-.051,0-.106.008-.157.016l-.271-2.14-.283.267.413,1.9a2.34,2.34,0,0,0-.872.358l-1.048-1.63-.385.012,1.319,1.7c-.043.031-.082.063-.126.1l-1.57-1.794-.432.012-.012.435,1.8,1.571c-.036.039-.071.082-.1.122l-1.7-1.32-.008.389,1.629,1.048a2.352,2.352,0,0,0-.361.872l-1.893-.412-.267.279,2.136.271c-.008.055-.012.106-.016.161l-2.379-.161-.3.318.3.314,2.379-.157c0,.051.008.106.016.157l-2.136.271.267.282,1.893-.412a2.345,2.345,0,0,0,.361.872l-1.629,1.048.008.385,1.7-1.319a1.465,1.465,0,0,0,.1.121l-1.8,1.571.012.436.432.011,1.57-1.794c.044.035.083.071.126.1l-1.319,1.7.385.008,1.048-1.629a2.431,2.431,0,0,0,.872.361l-.413,1.892.283.267.271-2.136c.051,0,.106.012.157.016l-.157,2.38.314.3.314-.3-.157-2.38c.055,0,.106-.012.161-.016l.271,2.136.279-.267-.412-1.892a2.427,2.427,0,0,0,.871-.361l1.049,1.629.388-.008-1.319-1.7c.039-.031.082-.067.122-.1l1.57,1.794.432-.011.012-.436-1.794-1.571c.035-.039.07-.078.1-.121l1.7,1.319.011-.385-1.633-1.048a2.282,2.282,0,0,0,.361-.872l1.9.412.267-.282-2.14-.271c.008-.051.012-.106.016-.157Z" fill="#efd63e"/>
            <g id="Group_869" data-name="Group 869">
              <path id="Path_1010" data-name="Path 1010" d="M2316.629,472.059v.958l.907.294-.907.294v.954l-.562-.773-.907.294.562-.773-.562-.77.907.294Z" fill="#efd63e"/>
              <g id="Group_868" data-name="Group 868">
                <path id="Path_1011" data-name="Path 1011" d="M2302.349,481.486l-.711.632.385.876-.825-.483-.715.636.2-.931-.825-.483.95-.094.2-.934.381.876Z" fill="#efd63e"/>
                <path id="Path_1012" data-name="Path 1012" d="M2300.488,463.472l.71.64.825-.483-.385.876.711.636-.95-.1-.385.876-.2-.934-.95-.1.825-.479Z" fill="#efd63e"/>
              </g>
            </g>
          </g>
        </g>
      </g>
    </g>
    <g id="Group_874" data-name="Group 874">
      <g id="Ellipse_60" data-name="Ellipse 60" transform="translate(2296.259 455.812)" fill="none" stroke="#acacac" stroke-width="0.5">
        <circle cx="17.5" cy="17.5" r="17.5" stroke="none"/>
        <circle cx="17.5" cy="17.5" r="17.25" fill="none"/>
      </g>
    </g>
  </g>
</svg>
