<svg xmlns="http://www.w3.org/2000/svg" xmlns:xlink="http://www.w3.org/1999/xlink" width="35" height="35" viewBox="0 0 35 35">
  <defs>
    <clipPath id="clip-path">
      <circle id="Ellipse_63" data-name="Ellipse 63" cx="17.5" cy="17.5" r="17.5" transform="translate(2936.287 455.812)" fill="none"/>
    </clipPath>
    <clipPath id="clip-path-2">
      <rect id="Rectangle_141" data-name="Rectangle 141" width="59.99" height="35" transform="translate(2927.965 455.812)" fill="none"/>
    </clipPath>
  </defs>
  <g id="Sri_Lanka" data-name="Sri Lanka" transform="translate(-2936.287 -455.812)">
    <g id="Group_903" data-name="Group 903" clip-path="url(#clip-path)">
      <g id="SRI_LANKA-2" data-name="SRI LANKA">
        <g id="Group_902" data-name="Group 902">
          <g id="Group_901" data-name="Group 901">
            <g id="Group_900" data-name="Group 900" clip-path="url(#clip-path-2)">
              <rect id="Rectangle_136" data-name="Rectangle 136" width="59.99" height="35" transform="translate(2927.965 455.812)" fill="#f5cd28"/>
              <rect id="Rectangle_137" data-name="Rectangle 137" width="10.183" height="27.655" transform="translate(2940.648 459.484)" fill="#ed6f22"/>
              <rect id="Rectangle_138" data-name="Rectangle 138" width="10.04" height="27.662" transform="translate(2930.618 459.484)" fill="#2f742e"/>
              <rect id="Rectangle_139" data-name="Rectangle 139" width="31.809" height="27.662" transform="translate(2953.489 459.484)" fill="#8e1841"/>
              <g id="Group_899" data-name="Group 899">
                <g id="Group_898" data-name="Group 898" clip-path="url(#clip-path-2)">
                  <path id="Path_1013" data-name="Path 1013" d="M2965.618,472.324l.526.014a1.351,1.351,0,0,0-.456,1.173c.618-.915.845-.741.845-.741a.862.862,0,0,0-.269,1.1,3.628,3.628,0,0,1,.739-1.118,2.5,2.5,0,0,0,.162,1.348,5.5,5.5,0,0,1,.579-1.194s-.052.691.253.95a2.02,2.02,0,0,0,.405-.768s.458.81.739.928a2.8,2.8,0,0,0,.227-.977,1.882,1.882,0,0,0,1.7.279,1.581,1.581,0,0,1-.9-.81s1.22.538,1.746.3a13.6,13.6,0,0,0-1.707-.97,3.3,3.3,0,0,0,1.143.244,2.044,2.044,0,0,0-.511-.391Z" fill="#f5cd28"/>
                  <g id="Group_879" data-name="Group 879">
                    <path id="Path_1014" data-name="Path 1014" d="M2967.2,474.111a2.227,2.227,0,0,1-.226-1.326,5.506,5.506,0,0,0-.673,1.1.789.789,0,0,1,.158-1.082l.044-.042c-.052.022-.286.022-.785.768a1.283,1.283,0,0,1,.412-1.221l-.507.056c-.019,0-.028-.021-.028-.042s.013-.035.028-.028l.526.014c.015.063-.554.551-.424,1.194.34-.6.586-.755.719-.768.075-.014.11,0,.113.007l-.052.1a.792.792,0,0,0-.206,1.013,2.883,2.883,0,0,1,.686-1.124,3.885,3.885,0,0,0,.215,1.347,4.45,4.45,0,0,1,.523-1.194c.056.021.007.7.3.95a2.508,2.508,0,0,0,.349-.754c.067.007.517.789.786.907a3.309,3.309,0,0,0,.183-.949,3.154,3.154,0,0,0,1.2.363,1.1,1.1,0,0,0,.512-.112,1.418,1.418,0,0,1-.917-.768,7.157,7.157,0,0,0,1.43.314.958.958,0,0,0,.333-.055c-.506-.329-1.7-.908-1.7-.908.024-.049.722.188,1.045.188a.417.417,0,0,0,.1-.007,4.181,4.181,0,0,0-.518-.335c.05-.042.429.168.553.342a1.7,1.7,0,0,1-.916-.1,8.777,8.777,0,0,1,1.473.824c-.5.279-1.578-.154-1.756-.231a1.973,1.973,0,0,0,.9.733,1.707,1.707,0,0,1-1.711-.209,1.849,1.849,0,0,1-.19.956c-.313-.1-.723-.8-.791-.907a1.394,1.394,0,0,1-.363.76,1.222,1.222,0,0,1-.311-.935,11.653,11.653,0,0,0-.514,1.159Z" fill="#8e1841"/>
                  </g>
                  <path id="Path_1015" data-name="Path 1015" d="M2972.96,465.768c1.623-.147,4.128,1.18,5.453,2.066,0-.3,0-.593.3-.74a.456.456,0,0,1,.59.594c-.443,1.026-2.213-.154-2.8-.447l.295.593a2.007,2.007,0,0,1-1.62-1.033c-.148.586-.148.733-.887.733.281-.44.372-.586,0-1.026l-.146.879-.732-1.026v1.026a2.432,2.432,0,0,0-1.036-.586c-.442-.147-.737.733-.885,1.173.443-.44.59-.733,1.328-.44-.4.377-.281.831.145,1.18,0,0,.078-.614.124-.754.235.175.735.831,1.351.9a4.321,4.321,0,0,0,1.328-.294c1.471-.153,4.718.147,3.978,2.353a2.286,2.286,0,0,1-.592,1.027c2.067.74.3,3.393-.146,4.712-.292,1.18-.088,2.116,1.365,1.969a1.3,1.3,0,0,1-1.365.684.812.812,0,0,0,.457.524c-.632.559.216,1.41-.159,1.829a1.884,1.884,0,0,1-1.475-.146l-.042.412a9.46,9.46,0,0,1-1.136-.119,6.6,6.6,0,0,0,.3-.607,1.059,1.059,0,0,1-1.18.607,1.382,1.382,0,0,1,.375-.628c-.447.447-.5.642-.965.628,0-.733.438-1.613,1.325-1.326.15,0,.616.37.832.132.177-.251.069-1.117.069-1.4.094-1.306-.165-1.229-.9-1.969-.588-.44-1.019-1.117-1.756-1.264s-1.927.677-2.517.971a12.573,12.573,0,0,1-4.421,1.766.6.6,0,0,0,.031-.223,6.364,6.364,0,0,0,1.87-3.512c-.435,2.15-1.983,3.281-2.041,3.686a4.624,4.624,0,0,1-.415,1.117,4.038,4.038,0,0,1,1.585-.475c-.17.915-1.03.734-1.177,1.174,0,.446.587,1.033,0,1.326h-2.36a3.327,3.327,0,0,0,.381-.635c-.32.188-.52.7-1.212.642.027-.2.357-.489.3-.607-.4.37-.585.684-1.091.6.146-.44.146-1.026.736-1.026.442-.147.885.146,1.182-.3.59-.734-.11-2.346-.255-3.233a6.184,6.184,0,0,0-.188-1.767l.146,2.646a7.06,7.06,0,0,1-1.621-1.326,2.38,2.38,0,0,1,.59-3.679,6,6,0,0,1,1.646-.964c-.147-.44.209-.775-.313-.908-.159.273-.307.573-.609.552l.161-.74s-.533.035-.428.984a.75.75,0,0,1-.311-.984h-.3s0,.873-.481,1.047a6.142,6.142,0,0,0,.186-1.047s-.79.943-1.246.635c.269-.307.477-.356.44-.726a3.912,3.912,0,0,0-.258-.915,2.874,2.874,0,0,0,1.976.063,2.11,2.11,0,0,0-.027.5,2.133,2.133,0,0,1,1.625.14c-.148-1.02-.738-1.18-1.33-1.906v.586c-.59-.147-.736-.293-1.033-.88l-.442.294c-.776-.461-1.351-1.55-.247-1.488.659.084.1.6.1.6a17.618,17.618,0,0,1,2.36-.587,1.02,1.02,0,0,0-.819-.488c.519-.384,1.039-.51,1.412.307.369.028.712-.426.493-1a1.233,1.233,0,0,1,1.066.7c.206.035.41-.175.363-.908.511.44.768.58.8.95a2.041,2.041,0,0,0,1.4-.294c-.15.587-.15.733-.74,1.034a1.611,1.611,0,0,1,.377,1.354c-.15-.042-.185-.056-.287-.084a8.36,8.36,0,0,1,.063,1.229h-.3l.443,1.327-.3.433a23.089,23.089,0,0,1,3.1-.58,26.648,26.648,0,0,1,3.683-.6c.885,0,.885.447,2.065.447v-.734a1.4,1.4,0,0,0-1.18-1.326,6.954,6.954,0,0,0-1.62.433,9.01,9.01,0,0,1-2.067.16,3.635,3.635,0,0,1-2.274-.844c-.4.1-.625.446-.826,1.047a1.1,1.1,0,0,1,.156-1.536c-.445-1.613.735-2.353,2.208-2.646Z" fill="#f5cd28"/>
                  <path id="Path_1016" data-name="Path 1016" d="M2973.408,479.019c-.3-.447-1.331-1.18-1.036-1.92.443-.733,2.951-1.913,3.391-.293a5.267,5.267,0,0,1-.457,2.06,1.638,1.638,0,0,1,1.2-.28c-.136.58-1.021,1.027-1.021,1.027a8.835,8.835,0,0,1-.606,2.2h-1.918l.295-.587-.44.587h-.738l.59-.733s-.7.817-1.29.782c.141-1.18.848-1.375,1.878-.929a2.873,2.873,0,0,0,.153-1.913Z" fill="#f5cd28"/>
                  <g id="Group_880" data-name="Group 880">
                    <path id="Path_1017" data-name="Path 1017" d="M2971.408,481.9l-.035-.007c.1-1.159.758-1.473,1.9-.985a.588.588,0,0,1,.035-.279,2.309,2.309,0,0,0,.075-1.592,4.455,4.455,0,0,0-.337-.391c-.412-.44-.923-.984-.7-1.557a3.287,3.287,0,0,1,2.3-1.124,1.081,1.081,0,0,1,1.15.838,4.231,4.231,0,0,1-.386,1.864l-.068.2a.362.362,0,0,1,.145-.126,1.35,1.35,0,0,1,1.028-.182c-.114.622-.976,1.062-1.011,1.083a8.351,8.351,0,0,1-.593,2.185l-1.948.014.27-.635-.389.628-.764.007.378-.531a1.659,1.659,0,0,1-1.047.587Zm1.07-.608-.375.545.712-.056.417-.572-.242.621,1.888-.049a10.1,10.1,0,0,0,.574-2.157c.03-.042.894-.482,1.023-1.041a1.179,1.179,0,0,1-.272.007,1.226,1.226,0,0,0-.686.21,1.142,1.142,0,0,1-.2.1l.032-.258a4.335,4.335,0,0,0,.385-1.822,1.03,1.03,0,0,0-1.09-.789,3.217,3.217,0,0,0-2.243,1.082c-.21.531.286,1.061.687,1.48a4.6,4.6,0,0,1,.348.4,2.367,2.367,0,0,1-.07,1.648c-.025.105-.054.2-.081.286a3.361,3.361,0,0,0-.907-.181c-.55,0-.868.349-.965,1.082.563-.007,1.225-.768,1.232-.775h0a.621.621,0,0,1-.166.23Z" fill="#8e1841"/>
                  </g>
                  <path id="Path_1018" data-name="Path 1018" d="M2965.508,467.932c-.2.119-.034.929.273.8.378-.175-.119-.887-.273-.8Z" fill="#f5cd28"/>
                  <g id="Group_881" data-name="Group 881">
                    <path id="Path_1019" data-name="Path 1019" d="M2965.709,468.77c-.111,0-.22-.119-.281-.328s-.054-.461.068-.538c.2-.007.4.258.444.5a.286.286,0,0,1-.145.356l-.086.014Zm-.167-.817c-.095.049-.11.272-.053.475.039.139.117.279.22.279v.035l.06-.049a.234.234,0,0,0,.11-.286c-.053-.224-.254-.454-.337-.454Z" fill="#8e1841"/>
                  </g>
                  <path id="Path_1020" data-name="Path 1020" d="M2965.7,467.681c.367.251.943.935,1.658.893-.539-.439-.431-.768-.431-.768a2,2,0,0,0,1.533.517c-.362-.272-.433-.3-.512-.551a2.886,2.886,0,0,0,1.4-.042Z" fill="#f5cd28"/>
                  <g id="Group_882" data-name="Group 882">
                    <path id="Path_1021" data-name="Path 1021" d="M2967.214,468.567a2.032,2.032,0,0,1-1.255-.642c-.1-.084-.194-.16-.278-.223a.03.03,0,0,1-.007-.042.031.031,0,0,1,.046-.007c.08.056.174.132.279.223a2.067,2.067,0,0,0,1.354.671c-.57-.4-.464-.734-.46-.748a2.168,2.168,0,0,0,1.551.489l-.113-.021c-.276-.2-.344-.244-.416-.489l.158-.02a2.482,2.482,0,0,0,1.256-.056,1.968,1.968,0,0,1-1.267.118l-.12-.014c.1.175.158.217.427.412l.109.077a1.784,1.784,0,0,1-1.559-.44,1.1,1.1,0,0,0,.454.7,1.235,1.235,0,0,1-.159.014Z" fill="#8e1841"/>
                  </g>
                  <path id="Path_1022" data-name="Path 1022" d="M2966.4,472.17l.042-.621s.405.942.7.956a3.3,3.3,0,0,1-.107-1.236Z" fill="#f5cd28"/>
                  <g id="Group_883" data-name="Group 883">
                    <path id="Path_1023" data-name="Path 1023" d="M2967.154,472.5c-.336,0-.705-.845-.747-.935l.023.607c0,.021-.021.021-.033.028s-.03-.014-.03-.028l.04-.621c.171.244.508.914.735.921a2.85,2.85,0,0,1-.143-1.208c.061.014-.016.559.166,1.236Z" fill="#8e1841"/>
                  </g>
                  <path id="Path_1024" data-name="Path 1024" d="M2967.34,471.409s.806,1.48,1.2,1.243a1.531,1.531,0,0,1-.526-1.208,1.927,1.927,0,0,0,1.063,1.194,3.549,3.549,0,0,0-.314-1.348s.665,1.159,1,1.187a.679.679,0,0,0,.136-.558Z" fill="#f5cd28"/>
                  <g id="Group_884" data-name="Group 884">
                    <path id="Path_1025" data-name="Path 1025" d="M2968.429,472.708a.185.185,0,0,1-.06-.007c-.42-.112-1.029-1.222-1.056-1.271a.037.037,0,0,1,.014-.049c.013,0,.035,0,.042.014s.618,1.138,1.018,1.243a.166.166,0,0,0,.132-.014,1.454,1.454,0,0,1-.537-1.187c.064.007.337.894,1.1,1.166a4.362,4.362,0,0,0-.351-1.3v.007c.014,0,.038.028.068.077.26.349.719,1.033.956,1.061a.659.659,0,0,0,.1-.523h0c.061,0,.14.293-.08.572-.276-.014-.7-.621-.915-.963a2.586,2.586,0,0,1,.237,1.1,1.834,1.834,0,0,1-1.1-1.1,1.75,1.75,0,0,0,.545,1.089.149.149,0,0,1-.129.084Z" fill="#8e1841"/>
                  </g>
                  <path id="Path_1026" data-name="Path 1026" d="M2966.707,470.39l.594.754.091-1.006s.579.454.689.44-.162-1.075-.162-1.075a12.073,12.073,0,0,0,.831,1.159,8.88,8.88,0,0,0,.08-1.173s.6,1.627.8,1.62.15-.231.15-.231Z" fill="#f5cd28"/>
                  <g id="Group_885" data-name="Group 885">
                    <path id="Path_1027" data-name="Path 1027" d="M2967.333,471.151l-.652-.74a.035.035,0,0,1,.007-.042.027.027,0,0,1,.046.007l.59.747.038-.992a6.13,6.13,0,0,0,.714.419,4.945,4.945,0,0,0-.188-1.04c.333.4.8,1.082.867,1.124,0-.049.033-.621.045-1.145a6.567,6.567,0,0,0,.824,1.585.121.121,0,0,0,.1-.049.192.192,0,0,0,.023-.14c.056-.021.089.1.033.182a.2.2,0,0,1-.15.07h0c-.211,0-.681-1.25-.82-1.634.033,1.152-.019,1.18-.039,1.187s-.075.042-.874-1.166a2.516,2.516,0,0,1,.23,1.068c-.153.035-.61-.321-.748-.433l-.04.992Z" fill="#8e1841"/>
                  </g>
                  <path id="Path_1028" data-name="Path 1028" d="M2966.264,469.077s.913.824,1.007.775-.375-.963-.375-.963a2.911,2.911,0,0,0,.726.53c.2.042.07-.642.07-.642s.62.53.723.5.056-.5.056-.5a5.673,5.673,0,0,0,.431.4c.029,0-.086-1.159-.086-1.159a10.376,10.376,0,0,0,.971.942Z" fill="#f5cd28"/>
                  <g id="Group_886" data-name="Group 886">
                    <path id="Path_1029" data-name="Path 1029" d="M2967.268,469.887a4.311,4.311,0,0,1-1.026-.789.035.035,0,0,1,0-.049.051.051,0,0,1,.045,0,5.114,5.114,0,0,0,.976.775h0a4.512,4.512,0,0,0-.393-.921,6.637,6.637,0,0,0,.757.488c.1-.076.069-.412.03-.607a4.488,4.488,0,0,0,.752.461c.042-.014.055-.231.028-.461.238.153.442.356.473.37-.028-.035-.083-.712-.125-1.124.382.321.932.88,1,.907-.012.07-.08.077-.993-.886a5.132,5.132,0,0,1,.129,1.152c-.042.014-.064.014-.48-.4.075.125.1.475-.019.509s-.583-.356-.742-.495c.061.077.133.5.026.614a.4.4,0,0,1-.094.028,2.879,2.879,0,0,1-.738-.544c.368.586.492.928.41.97-.005.007-.009.007-.019.007Z" fill="#8e1841"/>
                  </g>
                  <path id="Path_1030" data-name="Path 1030" d="M2962.6,469.37c.044.07.192,1.257,2.033.775.177-.1.1.328.089.454a1.914,1.914,0,0,1,1.568.119,1.283,1.283,0,0,0-.726-1.11.63.63,0,0,0-.445.077s-2.222.02-2.519-.315Z" fill="#f5cd28"/>
                  <g id="Group_887" data-name="Group 887">
                    <path id="Path_1031" data-name="Path 1031" d="M2966.294,470.753c-.007,0-.014-.007-.019-.007a1.3,1.3,0,0,0-.791-.231,2.489,2.489,0,0,0-.693.1c-.009,0-.049.007-.054-.007s-.04-.007-.04-.021l.007-.07c.01-.1.033-.314-.007-.356a3.612,3.612,0,0,1-.854.126,1.164,1.164,0,0,1-1.251-.873.042.042,0,0,1-.007-.021c.312.754.972.992,2.045.712l.112.014c.056.063.044.224.025.4l0,.077a1.57,1.57,0,0,1,.721-.153,1.4,1.4,0,0,1,.765.2,1.206,1.206,0,0,0-.7-1.005.545.545,0,0,0-.114-.014.582.582,0,0,0-.3.083c-.583.007-2.283-.014-2.557-.321a.045.045,0,0,1,.01-.028c.012-.007.026-.028.035-.014a5.859,5.859,0,0,0,2.439.308,1.052,1.052,0,0,1,.371-.091.872.872,0,0,1,.133.014,1.3,1.3,0,0,1,.752,1.131.038.038,0,0,1-.015.035s-.011.007-.016.007Z" fill="#8e1841"/>
                  </g>
                  <path id="Path_1032" data-name="Path 1032" d="M2961.6,476.939c-.033.139-.126.174-.4.572.121.175.681.44.836.293.135-.069.145-.439.145-.439a3.049,3.049,0,0,0,1.407,1.291.655.655,0,0,0,.883-.593c0-.447-.666-1.152-.96-1.445-.74-.887-.672-2.556-2.068-2.325,0,.013-.061.209-.194.244.112.209.175.391-.092.461.208.2.237.349-.03.453.162.217.354.3-.019.482a2.078,2.078,0,0,1,.494,1.006Z" fill="#f5cd28"/>
                  <g id="Group_888" data-name="Group 888">
                    <path id="Path_1033" data-name="Path 1033" d="M2963.822,478.719a.58.58,0,0,1-.242-.042,2.724,2.724,0,0,1-1.4-1.264c.026.091,0,.356-.129.419a.184.184,0,0,1-.148.042h0a1.2,1.2,0,0,1-.732-.342,2.443,2.443,0,0,1,.271-.391c.075-.1.112-.133.126-.209a2.029,2.029,0,0,0-.482-.978c.129-.111.194-.16.2-.209s-.038-.1-.1-.168c-.028-.035-.056-.063-.089-.111.115-.084.173-.126.185-.182s-.037-.154-.152-.265c.094-.077.147-.112.164-.154.037-.07-.005-.181-.078-.321a.5.5,0,0,0,.19-.251.8.8,0,0,1,.284-.049c.756,0,1.014.635,1.29,1.312a4.119,4.119,0,0,0,.548,1.041c.292.286.971,1.012.971,1.466a.661.661,0,0,1-.683.656Zm-1.667-1.354a3.147,3.147,0,0,0,1.444,1.256.619.619,0,0,0,.841-.558c0-.433-.665-1.145-.949-1.425a3.886,3.886,0,0,1-.561-1.061c-.3-.726-.576-1.4-1.478-1.25a.34.34,0,0,0-.089.566.3.3,0,0,1-.2.14c.15.069.2.174.185.265s-.082.133-.208.181c.042-.006.074.028.1.056.07.084.128.147.112.224s-.084.125-.234.2a1.644,1.644,0,0,1,.5.929.414.414,0,0,1-.131.286c-.059.077-.147.189-.265.356.115.112.674.356.789.251.108-.055.136-.321.139-.418Z" fill="#8e1841"/>
                  </g>
                  <path id="Path_1034" data-name="Path 1034" d="M2961.241,464.462c-.447.642-.491,7.708-.349,9.125a2.073,2.073,0,0,1-1.5.084c.108-.51.49-8.7,1.852-9.209Z" fill="#f5cd28"/>
                  <g id="Group_889" data-name="Group 889">
                    <path id="Path_1035" data-name="Path 1035" d="M2960.11,473.8a2.465,2.465,0,0,1-.733-.1c0-.126.031-.489.069-.977.2-2.36.652-7.869,1.781-8.288-.4.677-.454,7.652-.309,9.153a1.387,1.387,0,0,1-.808.217Zm1.1-9.356c-1.058.447-1.526,6.13-1.7,8.274-.042.516-.072.858-.091.956a6.333,6.333,0,0,0,.69.063,1.443,1.443,0,0,0,.761-.175c-.14-1.256-.117-8.455.344-9.118Z" fill="#8e1841"/>
                  </g>
                  <path id="Path_1036" data-name="Path 1036" d="M2959.986,478.942s-1.957.273-1.133-.886c.705-.307.688.412.428.656a.515.515,0,0,0,.583-.489.617.617,0,0,1,.138-.886c-1.362.307-1.544-.629-1.044-.775.642.035.438.237.693.425.455-.425.733-.467,1.007-.034.277-.426.672-.377.687-.335.444.754-.535.795-.93.7a.817.817,0,0,1,.089.977c.012.258.206.293.52.4-.673-1.857,2.371.5-.689.258.007.084.014.168.016.245.251.049.426.105.508.37-.109.14-.274.16-.536.063,0,0,.153.426-.126.544a.673.673,0,0,1-.257-.467c-.129.153-.315.048-.474-.077.143-.356.544-.189.52-.692Z" fill="#f5cd28"/>
                  <path id="Path_1037" data-name="Path 1037" d="M2958.3,473.287c.119-.531,1.347-.468.761.105.4.628,1.6.538,2.049.181-.38-.726.656-.565.613-.013-.128.984-3.557.851-3.423-.273Z" fill="#f5cd28"/>
                  <path id="Path_1038" data-name="Path 1038" d="M2980.905,482.671a23.659,23.659,0,0,0,1.379,2.7,1.2,1.2,0,0,0,1.442-.077s.541.559.759.726a.493.493,0,0,0,.208-.167c-.218-.238-.517-.378-.665-.817a1.569,1.569,0,0,0,.19-1.306c-.641-1.082-2.786-.656-3.313-1.061Z" fill="#f5cd28"/>
                  <g id="Group_890" data-name="Group 890">
                    <path id="Path_1039" data-name="Path 1039" d="M2984.482,486.064l-.016-.014c-.218-.168-.74-.7-.763-.726-.16.321-1.1.377-1.44.07a9.408,9.408,0,0,1-.927-1.753c-.173-.37-.331-.726-.457-.956a4.276,4.276,0,0,0,1.133.181c.817.07,1.826.161,2.236.852a1.611,1.611,0,0,1-.194,1.34,1.463,1.463,0,0,0,.463.587,1.9,1.9,0,0,1,.2.188.349.349,0,0,1-.227.224l-.012.007Zm-.781-.789c.051.007.566.538.789.712a.441.441,0,0,0,.177-.154.761.761,0,0,1-.192-.139,1.4,1.4,0,0,1-.477-.642,1.632,1.632,0,0,0,.2-1.313c-.393-.649-1.388-.74-2.184-.81a2.455,2.455,0,0,1-1.124-.237,4.078,4.078,0,0,1,.508.921,9.52,9.52,0,0,0,.913,1.739,1.249,1.249,0,0,0,1.394-.077Z" fill="#8e1841"/>
                  </g>
                  <path id="Path_1040" data-name="Path 1040" d="M2957.881,463.91a23.6,23.6,0,0,0-1.381-2.708,1.2,1.2,0,0,0-1.442.076s-.541-.551-.755-.719a.452.452,0,0,0-.212.168c.222.23.521.37.667.817a1.58,1.58,0,0,0-.2,1.3c.649,1.075,2.792.649,3.318,1.061Z" fill="#f5cd28"/>
                  <g id="Group_891" data-name="Group 891">
                    <path id="Path_1041" data-name="Path 1041" d="M2957.862,463.931a2.521,2.521,0,0,0-1.089-.216c-.811-.077-1.825-.168-2.235-.852a1.625,1.625,0,0,1,.194-1.34,1.362,1.362,0,0,0-.463-.587,2.488,2.488,0,0,1-.2-.188.335.335,0,0,1,.224-.224,9.909,9.909,0,0,1,.789.733c.162-.321,1.11-.37,1.442-.076a9.508,9.508,0,0,1,.923,1.752c.173.37.335.726.462.964l-.048.034Zm-3.579-3.351a.505.505,0,0,0-.165.168.89.89,0,0,1,.2.139,1.363,1.363,0,0,1,.477.643,1.608,1.608,0,0,0-.194,1.3c.393.657,1.387.747,2.183.81a3.447,3.447,0,0,1,1.023.182c-.119-.238-.262-.545-.412-.866a9.425,9.425,0,0,0-.914-1.739,1.261,1.261,0,0,0-1.393.077c-.051,0-.587-.551-.8-.719Z" fill="#8e1841"/>
                  </g>
                  <path id="Path_1042" data-name="Path 1042" d="M2957.664,482.559a24.882,24.882,0,0,0-2.705,1.382,1.194,1.194,0,0,0,.077,1.446,10.5,10.5,0,0,0-.726.761.482.482,0,0,0,.167.209c.239-.223.374-.524.817-.67a1.6,1.6,0,0,0,1.306.195c1.08-.642.654-2.792,1.064-3.323Z" fill="#f5cd28"/>
                  <g id="Group_892" data-name="Group 892">
                    <path id="Path_1043" data-name="Path 1043" d="M2954.481,486.392l-.02-.014a.441.441,0,0,1-.181-.223,7.878,7.878,0,0,1,.733-.789.732.732,0,0,1-.288-.6,1.179,1.179,0,0,1,.208-.845,9.429,9.429,0,0,1,1.749-.921c.378-.175.731-.335.967-.461a4.187,4.187,0,0,0-.185,1.138c-.07.81-.156,1.822-.849,2.227a1.287,1.287,0,0,1-.441.07h0a1.55,1.55,0,0,1-.9-.265,1.449,1.449,0,0,0-.583.468c-.065.069-.126.139-.192.2l-.019.014Zm3.159-3.847a4.3,4.3,0,0,1-.929.51,8.84,8.84,0,0,0-1.729.914,1.1,1.1,0,0,0-.192.789.881.881,0,0,0,.265.608c0,.049-.555.586-.721.8a.492.492,0,0,0,.141.153c.06-.063.114-.118.164-.181a1.4,1.4,0,0,1,.646-.482,1.633,1.633,0,0,0,1.306.2c.656-.391.74-1.383.81-2.179a2.453,2.453,0,0,1,.239-1.124Z" fill="#8e1841"/>
                  </g>
                  <path id="Path_1044" data-name="Path 1044" d="M2980.963,463.91a24.133,24.133,0,0,1,1.38-2.708,1.2,1.2,0,0,1,1.442.076s.541-.551.758-.719a.457.457,0,0,1,.211.168c-.22.23-.525.37-.669.817a1.569,1.569,0,0,1,.192,1.3c-.644,1.075-2.789.649-3.314,1.061Z" fill="#f5cd28"/>
                  <g id="Group_893" data-name="Group 893">
                    <path id="Path_1045" data-name="Path 1045" d="M2980.982,463.931l-.051-.034c.133-.238.3-.594.463-.964a9.487,9.487,0,0,1,.927-1.745,1.291,1.291,0,0,1,1.49.069,4.431,4.431,0,0,1,.713-.726.439.439,0,0,1,.256.175,1.06,1.06,0,0,1-.2.23,1.279,1.279,0,0,0-.461.615,1.529,1.529,0,0,1,.194,1.3c-.417.691-1.425.782-2.238.859a2.423,2.423,0,0,0-1.089.216Zm2.042-2.9a1,1,0,0,0-.658.2,9.27,9.27,0,0,0-.914,1.732c-.152.321-.292.628-.407.859a3.737,3.737,0,0,1,1.019-.175c.8-.07,1.793-.153,2.187-.817a1.511,1.511,0,0,0-.19-1.263,1.272,1.272,0,0,1,.469-.678,1.242,1.242,0,0,0,.191-.181c-.023,0-.091-.091-.187-.126-.185.168-.721.719-.726.719a1.187,1.187,0,0,0-.784-.272Z" fill="#8e1841"/>
                  </g>
                  <path id="Path_1046" data-name="Path 1046" d="M2958.857,474.495c-.03.216.506.321,1.056.321s1.1-.091,1.131-.244c.005-.279-.479-.035-1.032-.042s-1.012-.224-1.155-.035Z" fill="#f5cd28"/>
                  <g id="Group_894" data-name="Group 894">
                    <path id="Path_1047" data-name="Path 1047" d="M2959.933,474.851h-.02c-.2,0-.866-.021-1.044-.223a.179.179,0,0,1-.044-.14c.1-.133.3-.105.6-.056a4.68,4.68,0,0,0,.588.07h0a4.076,4.076,0,0,0,.557-.056c.234-.042.4-.056.468.007a.174.174,0,0,1,.038.126c-.035.216-.759.272-1.142.272Zm-.867-.4a.212.212,0,0,0-.187.07.2.2,0,0,0,.038.063,1.652,1.652,0,0,0,1,.209l.02.028v-.028c.625,0,1.062-.119,1.077-.216a.1.1,0,0,0-.019-.07c-.047-.049-.209-.035-.413.007a3.264,3.264,0,0,1-.549.049,3.094,3.094,0,0,1-.614-.063,1.835,1.835,0,0,0-.349-.049Z" fill="#f5cd28"/>
                  </g>
                  <path id="Path_1048" data-name="Path 1048" d="M2958.9,475.116c.011.21.538.259,1.008.273s.942-.077,1.029-.231c-.083-.237-.6-.042-1.029-.028s-.9-.209-1.008-.014Z" fill="#f5cd28"/>
                  <g id="Group_895" data-name="Group 895">
                    <path id="Path_1049" data-name="Path 1049" d="M2960,475.424h-.1c-.481-.021-1.03-.07-1.039-.308a.228.228,0,0,1,.225-.111c.093,0,.2.021.328.035a2.022,2.022,0,0,0,.454.055,4.276,4.276,0,0,0,.445-.041,2.651,2.651,0,0,1,.37-.042c.1,0,.232.014.278.139-.1.2-.571.273-.965.273Zm-.91-.356c-.085,0-.139.013-.164.062.009.126.337.21.981.224l.093.007a1.379,1.379,0,0,0,.907-.217c-.047-.07-.284-.076-.579-.035a3.016,3.016,0,0,1-.424.056,1.668,1.668,0,0,1-.5-.056,1.4,1.4,0,0,0-.316-.041Z" fill="#f5cd28"/>
                  </g>
                  <path id="Path_1050" data-name="Path 1050" d="M2959.05,475.675c-.036.154.431.265.863.272s1.042-.16,1.045-.335c-.026-.133-.628.049-1.033.063s-.875-.147-.875,0Z" fill="#f5cd28"/>
                  <g id="Group_896" data-name="Group 896">
                    <path id="Path_1051" data-name="Path 1051" d="M2959.925,475.975h-.012a1.455,1.455,0,0,1-.868-.209.129.129,0,0,1-.024-.1c0-.091.113-.091.151-.091a2.3,2.3,0,0,1,.267.028,2.842,2.842,0,0,0,.432.035,2.637,2.637,0,0,0,.553-.063c.161-.021.3-.049.4-.049.042,0,.152,0,.163.084,0,.21-.65.363-1.063.363Zm-.753-.335c-.061,0-.089.007-.089.035.093.154.458.237.833.237l.009.035v-.035c.436,0,1-.167,1-.3a2.244,2.244,0,0,0-.491.035,4.476,4.476,0,0,1-.509.056,2.943,2.943,0,0,1-.493-.035,2.233,2.233,0,0,0-.26-.028Z" fill="#f5cd28"/>
                  </g>
                  <path id="Path_1052" data-name="Path 1052" d="M2959,476.248c.035.153.567.2,1.033.167s.944-.174.981-.349c-.023-.105-.557.084-1,.1s-1.018-.056-1.012.077Z" fill="#f5cd28"/>
                  <g id="Group_897" data-name="Group 897">
                    <path id="Path_1053" data-name="Path 1053" d="M2959.755,476.457c-.174,0-.741-.021-.783-.209.052-.091.15-.112.351-.112l.488.007a1.848,1.848,0,0,0,.2-.007,3.809,3.809,0,0,0,.575-.077,2.384,2.384,0,0,1,.35-.056c.023,0,.1,0,.112.063-.049.2-.555.349-1.011.377-.092.007-.188.014-.281.014Zm-.432-.258c-.17,0-.269.013-.292.042.019.076.272.153.724.153.093,0,.185-.007.278-.014.48-.035.918-.181.951-.314a2.663,2.663,0,0,0-.387.049,3.206,3.206,0,0,1-.585.084,1.884,1.884,0,0,1-.2.007l-.488-.007Z" fill="#f5cd28"/>
                  </g>
                </g>
              </g>
            </g>
          </g>
        </g>
      </g>
    </g>
  </g>
</svg>
