<svg xmlns="http://www.w3.org/2000/svg" width="35" height="35" viewBox="0 0 35 35">
  <g id="Telegram" transform="translate(-1106.551 -642.294)">
    <g id="Group_936" data-name="Group 936">
      <path id="Path_1062" data-name="Path 1062" d="M1124.051,642.294a17.5,17.5,0,1,0,17.5,17.5A17.5,17.5,0,0,0,1124.051,642.294Zm8.3,10.293c-.053.731-.471,3.292-.889,6.062-.627,3.92-1.306,8.205-1.306,8.205s-.1,1.2-.993,1.411-2.352-.731-2.614-.94c-.209-.157-3.919-2.509-5.278-3.659a.99.99,0,0,1,.052-1.672c1.882-1.725,4.129-3.868,5.488-5.226.627-.628,1.254-2.091-1.359-.314-3.711,2.561-7.369,4.965-7.369,4.965a3.068,3.068,0,0,1-2.4.052c-1.568-.47-3.4-1.1-3.4-1.1s-1.255-.784.888-1.621c0,0,9.042-3.71,12.178-5.017,1.2-.522,5.278-2.2,5.278-2.2S1132.507,650.81,1132.35,652.587Z" fill="#5faee1"/>
    </g>
    <path id="Path_1063" data-name="Path 1063" d="M1132.35,652.587c-.053.731-.471,3.292-.889,6.062-.627,3.92-1.306,8.205-1.306,8.205s-.1,1.2-.993,1.411-2.352-.731-2.614-.94c-.209-.157-3.919-2.509-5.278-3.659a.99.99,0,0,1,.052-1.672c1.882-1.725,4.129-3.868,5.488-5.226.627-.628,1.254-2.091-1.359-.314-3.711,2.561-7.369,4.965-7.369,4.965a3.068,3.068,0,0,1-2.4.052c-1.568-.47-3.4-1.1-3.4-1.1s-1.255-.784.888-1.621c0,0,9.042-3.71,12.178-5.017,1.2-.522,5.278-2.2,5.278-2.2S1132.507,650.81,1132.35,652.587Z" fill="#fff"/>
  </g>
</svg>
