<svg xmlns="http://www.w3.org/2000/svg" width="35" height="35" viewBox="0 0 35 35">
  <g id="Tiktok" transform="translate(-703 -487)">
    <g id="Group_952" data-name="Group 952" transform="translate(-613.263 -155.294)">
      <circle id="Ellipse_69" data-name="Ellipse 69" cx="17.5" cy="17.5" r="17.5" transform="translate(1316.263 642.294)"/>
      <g id="Group_951" data-name="Group 951">
        <g id="Group_950" data-name="Group 950">
          <path id="Path_1073" data-name="Path 1073" d="M1329.092,666.817l.063.058c.194.138.334.333.519.482a3.387,3.387,0,0,0,1.965.759,3.334,3.334,0,0,0,3.49-2.953,2.45,2.45,0,0,0,.006-.256V649.2c0-.353,0-.353.352-.353h2.386a.359.359,0,0,1,.221.033l.014.011a.267.267,0,0,1,.06.141,5.507,5.507,0,0,0,2.213,3.387c.072.053.133.119.2.176l.152.129a3.471,3.471,0,0,1,.484.414,5.507,5.507,0,0,0,2.182,1.115c.071.019.153.017.205.085l.013.011a.234.234,0,0,1,.04.175q0,1.385,0,2.769c0,.211-.028.222-.241.222a8.908,8.908,0,0,1-2-.24,9.59,9.59,0,0,1-3.139-1.353c-.05-.033-.1-.1-.157-.08-.069.031-.033.119-.033.182,0,2.6.01,5.2,0,7.8a7.431,7.431,0,0,1-6.572,7.385,7.356,7.356,0,0,1-4.23-.748,3.842,3.842,0,0,1-.616-.377l-.183-.162a5.054,5.054,0,0,1-1.081-1.378,7.46,7.46,0,0,1-1-4.051,7.428,7.428,0,0,1,5.072-6.712,6.71,6.71,0,0,1,1.707-.347,2.344,2.344,0,0,1,.325-.027.242.242,0,0,1,.149.034.057.057,0,0,0,.016.011.308.308,0,0,1,.023.167q0,1.4,0,2.809c0,.033,0,.067,0,.1,0,.094-.052.125-.141.1a3.526,3.526,0,0,0-.784-.121,2.98,2.98,0,0,0-1.2.179,3.329,3.329,0,0,0-.751,5.936C1328.909,666.684,1329.005,666.745,1329.092,666.817Z" fill="#fff"/>
          <path id="Path_1074" data-name="Path 1074" d="M1326.668,670.082c.049-.013.078.026.112.048a7.441,7.441,0,0,0,2.708,1,6.974,6.974,0,0,0,1.471.086,7.407,7.407,0,0,0,6.846-5.52,7.2,7.2,0,0,0,.226-1.482c.014-.289.013-.578.013-.866q0-3.714,0-7.429v-.168c.064-.018.093.03.129.055a9.533,9.533,0,0,0,2.867,1.334,9.718,9.718,0,0,0,1.726.311c.246.021.492.018.737.036.108.008.109,0,.111-.109s0-.236,0-.355v-2.514c0-.052,0-.1.005-.156.221.025.438.073.66.089a3.521,3.521,0,0,0,.411.019c.068,0,.1.022.089.09a.79.79,0,0,0,0,.085v3.707c0,.106,0,.108-.115.108a8.774,8.774,0,0,1-1.133-.076,9.549,9.549,0,0,1-4.186-1.6c-.038-.026-.077-.05-.136-.088v.17q0,3.97,0,7.94a7.377,7.377,0,0,1-7.907,7.37,7.317,7.317,0,0,1-4.539-1.977C1326.729,670.154,1326.7,670.117,1326.668,670.082Z" fill="#db3557"/>
          <path id="Path_1075" data-name="Path 1075" d="M1338.094,648.883c-.052,0-.1.007-.156.007h-2.557c-.2,0-.2,0-.2.192q0,7.811,0,15.623a3.315,3.315,0,0,1-.14,1.063,3.387,3.387,0,0,1-5.851,1.166.42.42,0,0,1-.038-.059,4.6,4.6,0,0,0,.793.261,3.387,3.387,0,0,0,4.029-2.768,3.2,3.2,0,0,0,.039-.579q0-7.827,0-15.653c0-.243-.034-.213.208-.213h3.695c.123,0,.125,0,.124.127A4.148,4.148,0,0,0,1338.094,648.883Z" fill="#52b5c4"/>
          <path id="Path_1076" data-name="Path 1076" d="M1331.654,657.439a7.58,7.58,0,0,0-2.153.374,7.4,7.4,0,0,0-4.8,5.015,7.583,7.583,0,0,0-.261,2.356,7.326,7.326,0,0,0,2.011,4.69.484.484,0,0,1,.032.046,1.74,1.74,0,0,1-.383-.264,7.39,7.39,0,0,1-2.824-6.294,7.369,7.369,0,0,1,6.822-6.863,7.635,7.635,0,0,1,1.458.032c.066.008.1.021.1.1C1331.656,656.9,1331.656,657.17,1331.654,657.439Z" fill="#52b5c4"/>
          <path id="Path_1077" data-name="Path 1077" d="M1329.092,666.817a2.788,2.788,0,0,1-.785-.55,3.284,3.284,0,0,1-1.021-2.053,3.376,3.376,0,0,1,4.256-3.628.2.2,0,0,0,.109.014.383.383,0,0,0,.011-.154q0-1.42,0-2.84c0-.052.005-.1.007-.156a6.026,6.026,0,0,1,1.091.049c.057.006.072.033.07.082,0,.029,0,.057,0,.085v3.763a.245.245,0,0,1-.018.144c-.165-.031-.327-.081-.495-.1a3.314,3.314,0,0,0-2.61.7,3.235,3.235,0,0,0-1.229,2.075,3.3,3.3,0,0,0,.554,2.483C1329.054,666.753,1329.072,666.786,1329.092,666.817Z" fill="#db3557"/>
          <path id="Path_1078" data-name="Path 1078" d="M1340.584,652.6a4.721,4.721,0,0,1-.978-.791,5.538,5.538,0,0,1-1.5-2.885.268.268,0,0,1,0-.028c.34-.02.681,0,1.021-.01.06,0,.087.023.081.084,0,.023,0,.047,0,.071a5.111,5.111,0,0,0,.73,2.645,5.429,5.429,0,0,0,.582.821C1340.546,652.534,1340.579,652.556,1340.584,652.6Z" fill="#db3557"/>
          <path id="Path_1079" data-name="Path 1079" d="M1343.607,654.341a5.524,5.524,0,0,1-2.563-1.3,2.067,2.067,0,0,1-.308-.311.153.153,0,0,1,.091.034,5.63,5.63,0,0,0,1.884.668,4.519,4.519,0,0,0,.788.068c.111,0,.114,0,.114.108C1343.612,653.851,1343.609,654.1,1343.607,654.341Z" fill="#52b5c4"/>
        </g>
      </g>
    </g>
  </g>
</svg>
