<svg xmlns="http://www.w3.org/2000/svg" width="34.999" height="35" viewBox="0 0 34.999 35">
  <g id="Turkey" transform="translate(-3588.343 1467.573)">
    <g id="Group_912" data-name="Group 912">
      <g id="Group_910" data-name="Group 910">
        <path id="Path_1054" data-name="Path 1054" d="M3605.842-1432.573a17.52,17.52,0,0,1-17.5-17.5,17.522,17.522,0,0,1,17.5-17.5,17.521,17.521,0,0,1,17.5,17.5A17.518,17.518,0,0,1,3605.842-1432.573Z" fill="#d13323"/>
      </g>
      <g id="Group_911" data-name="Group 911">
        <path id="Path_1055" data-name="Path 1055" d="M3603.015-1443.437a6.637,6.637,0,0,1-6.635-6.636,6.637,6.637,0,0,1,6.635-6.635,6.616,6.616,0,0,1,4.747,2,8.264,8.264,0,0,0-6.859-3.64,8.279,8.279,0,0,0-8.281,8.277,8.279,8.279,0,0,0,8.281,8.281,8.268,8.268,0,0,0,6.859-3.644A6.617,6.617,0,0,1,3603.015-1443.437Z" fill="#fff"/>
        <path id="Path_1056" data-name="Path 1056" d="M3614.951-1447.658l-2.843-.923-1.755,2.423,0-2.992-2.846-.919,2.842-.927v-2.992l1.759,2.419,2.843-.927-1.755,2.419Z" fill="#fff"/>
      </g>
    </g>
  </g>
</svg>
