<svg xmlns="http://www.w3.org/2000/svg" width="35" height="35" viewBox="0 0 35 35">
  <g id="Twitter" transform="translate(-1064.231 -642.294)">
    <g id="Group_935" data-name="Group 935">
      <path id="Path_1060" data-name="Path 1060" d="M1081.731,642.294a17.5,17.5,0,1,0,17.5,17.5A17.5,17.5,0,0,0,1081.731,642.294ZM1093,653.341a.541.541,0,0,1-.114.342,8.55,8.55,0,0,1-1.716,1.785c-.1.073-.262.15-.262.288,0,3.546-.906,7.087-3.49,9.655a12.99,12.99,0,0,1-12.611,2.949,12.088,12.088,0,0,1-2.439-.976c-.258-.141-.511-.286-.76-.45-.063-.051-.11-.1-.056-.131s.094-.029.291,0a8.618,8.618,0,0,0,3.648-.467,5.57,5.57,0,0,0,2.4-1.274c.009-.014.018-.014.028-.028-.16-.037-.32-.037-.479-.065a4.712,4.712,0,0,1-3.518-2.946c-.046-.117,0-.178.122-.155a5.04,5.04,0,0,0,1.674-.052,2.63,2.63,0,0,1-.567-.173,4.535,4.535,0,0,1-2.8-3.616,2.681,2.681,0,0,1-.029-.507c.01-.117.062-.154.165-.089a4.492,4.492,0,0,0,1.707.478c-.192-.149-.37-.314-.544-.478a4.487,4.487,0,0,1-.765-5.3c.085-.127.141-.127.244-.009a13.752,13.752,0,0,0,8.847,4.5c.093.014.1,0,.088-.1a4.752,4.752,0,0,1,.047-1.848,4.494,4.494,0,0,1,.874-1.751,4.68,4.68,0,0,1,1.464-1.2,4.574,4.574,0,0,1,1.815-.513,4.34,4.34,0,0,1,1.912.308,4.551,4.551,0,0,1,1.247.765,1.96,1.96,0,0,1,.225.23.175.175,0,0,0,.178.047,11.076,11.076,0,0,0,2.574-.985.122.122,0,0,1,.115-.01c.038.028.024.076.006.113a3.983,3.983,0,0,1-.721,1.314c-.206.256-.719.888-1.068.947a8.878,8.878,0,0,0,2.172-.62c.087-.039.088-.056.088,0Z" fill="#588fea"/>
    </g>
    <path id="Path_1061" data-name="Path 1061" d="M1093,653.341a.541.541,0,0,1-.114.342,8.55,8.55,0,0,1-1.716,1.785c-.1.073-.262.15-.262.288,0,3.546-.906,7.087-3.49,9.655a12.99,12.99,0,0,1-12.611,2.949,12.088,12.088,0,0,1-2.439-.976c-.258-.141-.511-.286-.76-.45-.063-.051-.11-.1-.056-.131s.094-.029.291,0a8.618,8.618,0,0,0,3.648-.467,5.57,5.57,0,0,0,2.4-1.274c.009-.014.018-.014.028-.028-.16-.037-.32-.037-.479-.065a4.712,4.712,0,0,1-3.518-2.946c-.046-.117,0-.178.122-.155a5.04,5.04,0,0,0,1.674-.052,2.63,2.63,0,0,1-.567-.173,4.535,4.535,0,0,1-2.8-3.616,2.681,2.681,0,0,1-.029-.507c.01-.117.062-.154.165-.089a4.492,4.492,0,0,0,1.707.478c-.192-.149-.37-.314-.544-.478a4.487,4.487,0,0,1-.765-5.3c.085-.127.141-.127.244-.009a13.752,13.752,0,0,0,8.847,4.5c.093.014.1,0,.088-.1a4.752,4.752,0,0,1,.047-1.848,4.494,4.494,0,0,1,.874-1.751,4.68,4.68,0,0,1,1.464-1.2,4.574,4.574,0,0,1,1.815-.513,4.34,4.34,0,0,1,1.912.308,4.551,4.551,0,0,1,1.247.765,1.96,1.96,0,0,1,.225.23.175.175,0,0,0,.178.047,11.076,11.076,0,0,0,2.574-.985.122.122,0,0,1,.115-.01c.038.028.024.076.006.113a3.983,3.983,0,0,1-.721,1.314c-.206.256-.719.888-1.068.947a8.878,8.878,0,0,0,2.172-.62c.087-.039.088-.056.088,0Z" fill="#fff"/>
  </g>
</svg>
