<svg xmlns="http://www.w3.org/2000/svg" xmlns:xlink="http://www.w3.org/1999/xlink" width="26.52" height="26.52" viewBox="0 0 26.52 26.52">
  <defs>
    <clipPath id="clip-path">
      <rect id="Rectangle_730" data-name="Rectangle 730" width="26.52" height="26.52" fill="none"/>
    </clipPath>
  </defs>
  <g id="BNB_Chain" data-name="BNB Chain" transform="translate(-940 -2613)">
    <g id="Group_2268" data-name="Group 2268" transform="translate(940 2613)">
      <g id="Group_2267" data-name="Group 2267" clip-path="url(#clip-path)">
        <path id="Path_1930" data-name="Path 1930" d="M13.26,0A13.26,13.26,0,1,1,0,13.26,13.26,13.26,0,0,1,13.26,0" transform="translate(0 0)" fill="#0c0e12" fill-rule="evenodd"/>
        <path id="Path_1931" data-name="Path 1931" d="M89.21,87.181l2,1.994-5.437,5.432-5.432-5.432,2-1.994,3.431,3.431Zm-3.437-3.437L87.8,85.773,85.773,87.8,83.75,85.779v-.006l.356-.356.172-.172Zm-6.84.029,2,2-2,1.994-2-2Zm13.68,0,2,2-2,1.994-2-2Zm-6.84-6.84L91.2,82.365l-2,2-3.431-3.437-3.431,3.431-2-1.994Z" transform="translate(-72.511 -72.511)" fill="#f3ba2f" fill-rule="evenodd"/>
      </g>
    </g>
  </g>
</svg>
