<svg xmlns="http://www.w3.org/2000/svg" width="32" height="32" viewBox="0 0 32 32">
  <g id="discord" transform="translate(-164 -1518)">
    <path id="Path_1092" data-name="Path 1092" d="M1159.248,545.067a14.255,14.255,0,0,0-14.253,14.256v0a14.252,14.252,0,0,0,14.254,14.251h0a14.255,14.255,0,1,0,0-28.509Z" transform="translate(-979.249 974.678)" fill="#33cb98"/>
    <g id="Group_1082" data-name="Group 1082" transform="translate(164 1518)">
      <g id="Group_1081" data-name="Group 1081">
        <g id="Group_1078" data-name="Group 1078">
          <path id="Path_1093" data-name="Path 1093" d="M1159.247,543.322a16,16,0,0,0-16,16h0a16,16,0,0,0,16,16h0a16,16,0,1,0,0-32Zm10.28,21.272a17.023,17.023,0,0,1-5.224,2.636,12.745,12.745,0,0,1-1.12-1.811,10.937,10.937,0,0,0,1.765-.846c-.145-.108-.291-.22-.431-.335a12.219,12.219,0,0,1-10.447,0c-.137.112-.279.223-.426.334a11.14,11.14,0,0,0,1.761.841,12.761,12.761,0,0,1-1.12,1.815,17.114,17.114,0,0,1-5.224-2.636,17.4,17.4,0,0,1,3.053-11.767,16.855,16.855,0,0,1,4.261-1.32,11.961,11.961,0,0,1,.559,1.12,16.012,16.012,0,0,1,4.719,0,10.865,10.865,0,0,1,.544-1.12,16.97,16.97,0,0,1,4.258,1.315A17.379,17.379,0,0,1,1169.527,564.594Z" transform="translate(-1143.249 -543.322)" fill="#fff"/>
        </g>
        <g id="Group_1079" data-name="Group 1079" transform="translate(10.775 14.761)">
          <path id="Path_1094" data-name="Path 1094" d="M1155.747,557.924a2.076,2.076,0,1,0,1.839,2.061A1.957,1.957,0,0,0,1155.747,557.924Z" transform="translate(-1153.91 -557.924)" fill="#fff"/>
        </g>
        <g id="Group_1080" data-name="Group 1080" transform="translate(17.64 14.761)">
          <path id="Path_1095" data-name="Path 1095" d="M1162.539,557.924a2.076,2.076,0,1,0,1.837,2.061A1.957,1.957,0,0,0,1162.539,557.924Z" transform="translate(-1160.702 -557.924)" fill="#fff"/>
        </g>
      </g>
    </g>
  </g>
</svg>
