<svg xmlns="http://www.w3.org/2000/svg" width="32" height="32.001" viewBox="0 0 32 32.001">
  <g id="facebook" transform="translate(-206 -1518)">
    <g id="Group_1084" data-name="Group 1084" transform="translate(206 1518)">
      <path id="Path_1096" data-name="Path 1096" d="M1197.6,543.277a16,16,0,1,0,16,16A16,16,0,0,0,1197.6,543.277Z" transform="translate(-1181.598 -543.277)" fill="#fff"/>
    </g>
    <g id="Group_1085" data-name="Group 1085" transform="translate(215.485 1524.421)">
      <path id="Path_1097" data-name="Path 1097" d="M1203.679,563.766l.705-4.594h-4.408V556.19a2.3,2.3,0,0,1,2.589-2.482h2.005V549.8a24.4,24.4,0,0,0-3.558-.311c-3.631,0-6,2.2-6,6.184v3.5h-4.035v4.594h4.035v11.086a14.013,14.013,0,0,0,4.968-.016v-11.07Z" transform="translate(-1190.973 -549.486)" fill="#33cb98"/>
    </g>
  </g>
</svg>
