<svg xmlns="http://www.w3.org/2000/svg" width="32" height="32" viewBox="0 0 32 32">
  <g id="instagram" transform="translate(-248 -1518)">
    <g id="Group_1089" data-name="Group 1089" transform="translate(248 1518)">
      <g id="Group_1088" data-name="Group 1088">
        <g id="Group_1087" data-name="Group 1087">
          <path id="Path_1098" data-name="Path 1098" d="M1236.034,543.277a16,16,0,1,0,16,16A16,16,0,0,0,1236.034,543.277Z" transform="translate(-1220.035 -543.277)" fill="#fff"/>
        </g>
      </g>
    </g>
    <path id="Path_1099" data-name="Path 1099" d="M1236.006,554.56a4.59,4.59,0,1,0,4.59,4.59A4.594,4.594,0,0,0,1236.006,554.56Zm0,7.529a2.939,2.939,0,1,1,2.939-2.939A2.943,2.943,0,0,1,1236.006,562.089Z" transform="translate(-971.929 974.828)" fill="#33cb98"/>
    <path id="Path_1100" data-name="Path 1100" d="M1240.863,553.159a1.092,1.092,0,1,0,1.093,1.092A1.092,1.092,0,0,0,1240.863,553.159Z" transform="translate(-971.895 974.793)" fill="#33cb98"/>
    <path id="Path_1101" data-name="Path 1101" d="M1239.8,549.831h-7.524a5.668,5.668,0,0,0-5.661,5.661v7.525a5.668,5.668,0,0,0,5.661,5.66h7.524a5.668,5.668,0,0,0,5.662-5.66v-7.525A5.668,5.668,0,0,0,1239.8,549.831Zm3.889,13.187a3.892,3.892,0,0,1-3.889,3.888h-7.524a3.891,3.891,0,0,1-3.888-3.888v-7.525a3.891,3.891,0,0,1,3.888-3.888h7.524a3.892,3.892,0,0,1,3.889,3.888Z" transform="translate(-972.035 974.723)" fill="#33cb98"/>
  </g>
</svg>
