<svg xmlns="http://www.w3.org/2000/svg" width="32" height="32.001" viewBox="0 0 32 32.001">
  <g id="Linkedin" transform="translate(-374.5 -1265.587)">
    <g id="Group_1232" data-name="Group 1232" transform="translate(0.5 -252.413)">
      <rect id="Rectangle_173" data-name="Rectangle 173" width="3.29" height="10.627" transform="translate(382.751 1530.475)" fill="#33cb98"/>
      <path id="Path_1106" data-name="Path 1106" d="M1345.663,554.237a1.961,1.961,0,1,1,1.945-1.961A1.953,1.953,0,0,1,1345.663,554.237Z" transform="translate(-961.284 974.777)" fill="#33cb98"/>
      <path id="Path_1107" data-name="Path 1107" d="M1359.651,566.256h-3.274v-5.579c0-1.53-.582-2.384-1.791-2.384-1.317,0-2,.89-2,2.384v5.579h-3.156V555.629h3.156v1.431a3.7,3.7,0,0,1,3.2-1.756c2.253,0,3.867,1.376,3.867,4.223Z" transform="translate(-961.209 974.845)" fill="#33cb98"/>
    </g>
    <g id="Group_1101" data-name="Group 1101" transform="translate(374.5 1265.587)">
      <g id="Group_1100" data-name="Group 1100">
        <path id="Path_1108" data-name="Path 1108" d="M1351.347,543.277a16,16,0,1,0,16,16A16,16,0,0,0,1351.347,543.277Zm-3.944,23.132h-3.311v-10.7h3.311Zm-1.671-12.1a1.974,1.974,0,1,1,1.958-1.974A1.966,1.966,0,0,1,1345.732,554.31Zm14.081,12.1h-3.3v-5.616c0-1.54-.586-2.4-1.8-2.4-1.326,0-2.017.9-2.017,2.4v5.616h-3.177v-10.7h3.177v1.44a3.729,3.729,0,0,1,3.223-1.768c2.268,0,3.893,1.385,3.893,4.251Z" transform="translate(-1335.347 -543.277)" fill="#fff"/>
      </g>
    </g>
  </g>
</svg>
