<svg xmlns="http://www.w3.org/2000/svg" width="32" height="32" viewBox="0 0 32 32">
  <g id="medium" transform="translate(-416.5 -1265.587)">
    <g id="Group_1103" data-name="Group 1103" transform="translate(416.5 1265.587)">
      <ellipse id="Ellipse_72" data-name="Ellipse 72" cx="16" cy="16" rx="16" ry="16" fill="#fff"/>
    </g>
    <g id="Group_1106" data-name="Group 1106" transform="translate(421.764 1275.547)">
      <g id="Group_1105" data-name="Group 1105">
        <g id="Group_1104" data-name="Group 1104">
          <path id="Path_1109" data-name="Path 1109" d="M1391.047,559.014a6.053,6.053,0,1,1-6.052-6.094,6.073,6.073,0,0,1,6.052,6.094" transform="translate(-1378.942 -552.92)" fill="#33cb98"/>
          <path id="Path_1110" data-name="Path 1110" d="M1397.686,559.014c0,3.168-1.354,5.736-3.026,5.736s-3.026-2.568-3.026-5.736,1.355-5.737,3.026-5.737,3.026,2.569,3.026,5.737" transform="translate(-1378.942 -552.92)" fill="#33cb98"/>
          <path id="Path_1111" data-name="Path 1111" d="M1400.4,559.014c0,2.838-.476,5.139-1.064,5.139s-1.064-2.3-1.064-5.139.476-5.14,1.064-5.14,1.064,2.3,1.064,5.14" transform="translate(-1378.942 -552.92)" fill="#33cb98"/>
        </g>
      </g>
    </g>
  </g>
</svg>
