<svg id="Group_2189" data-name="Group 2189" xmlns="http://www.w3.org/2000/svg" xmlns:xlink="http://www.w3.org/1999/xlink" width="26.521" height="26.521" viewBox="0 0 26.521 26.521">
  <defs>
    <linearGradient id="linear-gradient" x1="0.097" y1="-0.036" x2="0.893" y2="1.022" gradientUnits="objectBoundingBox">
      <stop offset="0.08" stop-color="#9945ff"/>
      <stop offset="0.3" stop-color="#8752f3"/>
      <stop offset="0.5" stop-color="#5497d5"/>
      <stop offset="0.6" stop-color="#43b4ca"/>
      <stop offset="0.72" stop-color="#28e0b9"/>
      <stop offset="0.97" stop-color="#19fb9b"/>
    </linearGradient>
  </defs>
  <g id="Group_2120" data-name="Group 2120" transform="translate(0 0)">
    <g id="Group_2118" data-name="Group 2118">
      <path id="Path_1774" data-name="Path 1774" d="M13.261,0A13.261,13.261,0,1,1,0,13.261,13.26,13.26,0,0,1,13.261,0Z" fill-rule="evenodd"/>
    </g>
    <g id="Group_2119" data-name="Group 2119" transform="translate(5.682 6.657)">
      <path id="Path_1775" data-name="Path 1775" d="M549.793,636.936l-2.5,2.614a.582.582,0,0,1-.193.133.594.594,0,0,1-.232.047H535a.3.3,0,0,1-.159-.046.285.285,0,0,1-.107-.124.277.277,0,0,1-.02-.161.281.281,0,0,1,.074-.145l2.5-2.614a.581.581,0,0,1,.193-.133.594.594,0,0,1,.231-.047h11.862a.3.3,0,0,1,.159.046.287.287,0,0,1,.107.124.277.277,0,0,1,.02.161A.28.28,0,0,1,549.793,636.936Zm-2.5-5.265a.581.581,0,0,0-.193-.133.593.593,0,0,0-.232-.047H535a.3.3,0,0,0-.159.046.286.286,0,0,0-.107.124.277.277,0,0,0-.02.161.281.281,0,0,0,.074.145l2.5,2.614a.581.581,0,0,0,.193.133.594.594,0,0,0,.231.047h11.862a.3.3,0,0,0,.159-.046.287.287,0,0,0,.107-.124.277.277,0,0,0,.02-.161.28.28,0,0,0-.074-.145ZM535,629.793h11.862a.6.6,0,0,0,.232-.047.579.579,0,0,0,.193-.133l2.5-2.614a.28.28,0,0,0,.074-.145.277.277,0,0,0-.02-.161.287.287,0,0,0-.107-.124.3.3,0,0,0-.159-.046H537.719a.6.6,0,0,0-.231.047.583.583,0,0,0-.193.133l-2.5,2.614a.279.279,0,0,0-.074.145.276.276,0,0,0,.02.161.285.285,0,0,0,.107.124A.3.3,0,0,0,535,629.793Z" transform="translate(-534.713 -626.523)" fill="url(#linear-gradient)"/>
    </g>
  </g>
</svg>
