<svg xmlns="http://www.w3.org/2000/svg" width="32" height="32" viewBox="0 0 32 32">
  <g id="telegram" transform="translate(-122 -1518)">
    <path id="Path_1090" data-name="Path 1090" d="M1128.243,552.626c-.047.664-.427,2.99-.807,5.506-.569,3.56-1.186,7.452-1.186,7.452s-.095,1.092-.9,1.282a3.906,3.906,0,0,1-2.374-.855c-.189-.142-3.56-2.278-4.794-3.322a.9.9,0,0,1,.048-1.519c1.709-1.567,3.75-3.513,4.984-4.747.569-.57,1.139-1.9-1.234-.285-3.371,2.326-6.693,4.51-6.693,4.51a2.793,2.793,0,0,1-2.184.047c-1.424-.427-3.085-1-3.085-1s-1.139-.712.807-1.471c0,0,8.212-3.37,11.06-4.557,1.091-.475,4.794-1.994,4.794-1.994S1128.386,551.012,1128.243,552.626Z" transform="translate(-982.734 974.829)" fill="#33cb98"/>
    <g id="Group_1075" data-name="Group 1075" transform="translate(122 1518)">
      <g id="Group_1074" data-name="Group 1074">
        <path id="Path_1091" data-name="Path 1091" d="M1120.812,543.277a16,16,0,1,0,16,16A16,16,0,0,0,1120.812,543.277Zm7.587,9.411c-.047.668-.43,3.01-.812,5.543-.573,3.584-1.194,7.5-1.194,7.5s-.1,1.1-.908,1.291a3.932,3.932,0,0,1-2.39-.861c-.19-.143-3.584-2.293-4.826-3.344a.905.905,0,0,1,.048-1.529c1.72-1.577,3.775-3.536,5.017-4.779.573-.574,1.146-1.912-1.242-.287-3.393,2.341-6.737,4.54-6.737,4.54a2.812,2.812,0,0,1-2.2.047c-1.433-.43-3.105-1-3.105-1s-1.147-.717.812-1.481c0,0,8.267-3.392,11.134-4.587,1.1-.478,4.826-2.007,4.826-2.007S1128.542,551.063,1128.4,552.688Z" transform="translate(-1104.812 -543.277)" fill="#fff"/>
      </g>
    </g>
  </g>
</svg>
