<svg xmlns="http://www.w3.org/2000/svg" width="32" height="32" viewBox="0 0 32 32">
  <g id="tiktok" transform="translate(-332 -1518)">
    <g id="Group_1094" data-name="Group 1094" transform="translate(339.227 1524.121)">
      <path id="Path_1104" data-name="Path 1104" d="M1321.06,557.34h0c-.162.016-.326.024-.489.025a5.312,5.312,0,0,1-4.444-2.4v8.179a6.045,6.045,0,1,1-6.044-6.045c.126,0,.249.011.373.019v2.979a3.078,3.078,0,1,0-.373,6.132,3.159,3.159,0,0,0,3.208-3.046l.03-13.89h2.85a5.309,5.309,0,0,0,4.892,4.739Zm0,0h0c-.162.016-.326.024-.489.025a5.312,5.312,0,0,1-4.444-2.4v8.179a6.045,6.045,0,1,1-6.044-6.045c.126,0,.249.011.373.019v2.979a3.078,3.078,0,1,0-.373,6.132,3.159,3.159,0,0,0,3.208-3.046l.03-13.89h2.85a5.309,5.309,0,0,0,4.892,4.739Z" transform="translate(-1304.034 -549.291)" fill="#33cb98"/>
    </g>
    <g id="Group_1097" data-name="Group 1097" transform="translate(332 1518)">
      <g id="Group_1096" data-name="Group 1096">
        <g id="Group_1095" data-name="Group 1095">
          <path id="Path_1105" data-name="Path 1105" d="M1312.909,543.277a16,16,0,1,0,16,16A16,16,0,0,0,1312.909,543.277Zm8.311,14.156h0c-.163.016-.328.024-.492.025a5.347,5.347,0,0,1-4.474-2.418v8.233a6.085,6.085,0,1,1-6.084-6.085c.127,0,.251.011.375.019v3a3.1,3.1,0,1,0-.375,6.173,3.18,3.18,0,0,0,3.229-3.066l.03-13.982h2.869a5.344,5.344,0,0,0,4.925,4.77Z" transform="translate(-1296.909 -543.277)" fill="#fff"/>
        </g>
      </g>
    </g>
  </g>
</svg>
