<svg xmlns="http://www.w3.org/2000/svg" width="32" height="32" viewBox="0 0 32 32">
  <g id="twitter" transform="translate(-80 -1518)">
    <path id="Path_1088" data-name="Path 1088" d="M1094.95,554.272a.54.54,0,0,1-.112.339,8.511,8.511,0,0,1-1.7,1.773c-.1.073-.26.149-.26.287,0,3.522-.9,7.04-3.468,9.591a12.9,12.9,0,0,1-12.527,2.929,11.983,11.983,0,0,1-2.423-.969c-.256-.14-.508-.285-.755-.448-.062-.05-.109-.1-.055-.13s.093-.029.288,0a8.538,8.538,0,0,0,3.624-.464,5.521,5.521,0,0,0,2.387-1.265c.009-.014.019-.014.028-.028-.159-.037-.317-.037-.476-.065A4.677,4.677,0,0,1,1076,562.9c-.046-.116,0-.177.121-.154a5.015,5.015,0,0,0,1.663-.051,2.657,2.657,0,0,1-.564-.172,4.507,4.507,0,0,1-2.776-3.592,2.731,2.731,0,0,1-.028-.5c.009-.116.06-.153.163-.089a4.479,4.479,0,0,0,1.7.476c-.191-.149-.368-.312-.54-.476a4.456,4.456,0,0,1-.76-5.265c.084-.126.14-.126.242-.009a13.66,13.66,0,0,0,8.788,4.473c.093.014.1,0,.088-.1a4.715,4.715,0,0,1,.047-1.837,4.461,4.461,0,0,1,.868-1.739,4.642,4.642,0,0,1,1.454-1.188,4.545,4.545,0,0,1,1.8-.509,4.312,4.312,0,0,1,1.9.306,4.535,4.535,0,0,1,1.24.759,2.112,2.112,0,0,1,.223.228.169.169,0,0,0,.176.047,10.983,10.983,0,0,0,2.558-.978.12.12,0,0,1,.114-.01c.037.028.024.075.005.112a3.961,3.961,0,0,1-.716,1.306c-.2.254-.713.882-1.06.94a8.848,8.848,0,0,0,2.157-.615c.086-.039.087-.056.087,0Z" transform="translate(-987.868 973.279)" fill="#33cb98"/>
    <g id="Group_1070" data-name="Group 1070" transform="translate(80 1518)">
      <path id="Path_1089" data-name="Path 1089" d="M1082.375,543.3a16,16,0,1,0,16,16A16,16,0,0,0,1082.375,543.3Zm10.3,10.1a.5.5,0,0,1-.1.312,7.831,7.831,0,0,1-1.569,1.632c-.089.067-.239.137-.239.264a12.1,12.1,0,0,1-3.192,8.827,11.876,11.876,0,0,1-11.529,2.7,11.029,11.029,0,0,1-2.23-.892c-.236-.129-.467-.262-.695-.412-.057-.046-.1-.089-.051-.12s.086-.027.265,0a7.857,7.857,0,0,0,3.335-.427,5.081,5.081,0,0,0,2.2-1.164c.008-.013.018-.013.026-.026-.146-.034-.292-.034-.438-.06a4.3,4.3,0,0,1-3.216-2.693c-.042-.107,0-.163.111-.142a4.616,4.616,0,0,0,1.531-.047,2.442,2.442,0,0,1-.519-.158,4.148,4.148,0,0,1-2.555-3.306,2.5,2.5,0,0,1-.026-.464c.008-.107.055-.141.15-.082a4.121,4.121,0,0,0,1.561.438c-.176-.137-.339-.287-.5-.438a4.1,4.1,0,0,1-.7-4.846c.077-.116.129-.116.223-.008a12.572,12.572,0,0,0,8.088,4.117c.086.013.094,0,.081-.094a4.338,4.338,0,0,1,.043-1.691,4.105,4.105,0,0,1,.8-1.6,4.271,4.271,0,0,1,1.338-1.093,4.182,4.182,0,0,1,1.659-.468,3.968,3.968,0,0,1,1.748.282,4.172,4.172,0,0,1,1.141.7,1.934,1.934,0,0,1,.205.21.156.156,0,0,0,.162.043,10.11,10.11,0,0,0,2.354-.9.11.11,0,0,1,.1-.009c.034.026.022.069,0,.1a3.644,3.644,0,0,1-.659,1.2c-.188.234-.656.812-.976.865a8.144,8.144,0,0,0,1.985-.566c.079-.036.08-.052.08,0Z" transform="translate(-1066.375 -543.297)" fill="#fff"/>
    </g>
  </g>
</svg>
